<svg xmlns="http://www.w3.org/2000/svg" viewBox="0 0 323.913 114.382">
  <path fill="#f6f9fa" d="M303.259 73.31c.83-1.03.106-2.565-.623-3.741a5.205 5.205 0 0 0-3.653-2.2 11.12 11.12 0 0 0-4.383.367c-1.022.256-1.89.386-2.249 1.356 3.936-10.122-8.294-22.1-18.644-18.254-7.309-17.514-25.807-29.982-45.141-30.424s-38.407 11.163-46.543 28.32c-1.521-6.383-10.251-9.876-15.91-6.368C160.98 18.781 137.757.22 113.105.002s-48.212 17.93-53.779 41.421c-21.09-1.723-41.6 16.641-41.7 37.343C9.981 75.076.277 82.52.005 90.855s6.443 15.662 14.281 18.943 16.629 3.376 25.154 3.418l237.13 1.161c10.163.05 20.641.041 30.028-3.77s17.5-12.445 17.312-22.384c-.147-7.973-7.626-15.888-15.963-15.824a11.63 11.63 0 0 0-4.8 1.062c1.21-1.463.416-3.939-.823-5.124a6.265 6.265 0 0 0-5.145-1.477 10.483 10.483 0 0 0-4.962 2.289" data-name="Path 68705"/>
</svg>
