<svg xmlns="http://www.w3.org/2000/svg" viewBox="0 0 44.536 43.2">
  <g data-name="Group 18357">
    <path fill-rule="evenodd" d="M24.99 41.179a19.581 19.581 0 1 0-19.584-19.58A19.6 19.6 0 0 0 24.987 41.18" data-name="Path 68572" opacity=".2"/>
    <g data-name="Group 19219">
      <path d="M13.349 3.908a3.387 3.387 0 0 0 .617 2.124 3.108 3.108 0 0 0 2.151 1.109 4.4 4.4 0 0 0 2.569-.394 3 3 0 0 0 1.42-1.777 5.193 5.193 0 0 0 .246-1.912 3 3 0 0 0-.938-2.147 3.758 3.758 0 0 0-4.122-.526 3.865 3.865 0 0 0-1.944 3.522 1.168 1.168 0 0 0 1.159 1.158 1.182 1.182 0 0 0 1.159-1.158c0-.107.008-.215.018-.321 0-.041.012-.085.014-.126-.012.326-.026.187-.008.09.038-.211.132-.409.172-.617 0 .013-.129.273-.046.114.018-.035.035-.071.053-.106.046-.086.1-.166.152-.25.093-.148-.065.087-.076.1a1.1 1.1 0 0 0 .1-.11q.05-.053.1-.1c.094-.087.182-.088-.052.03.089-.045.169-.115.258-.163.036-.019.078-.035.113-.056-.221.139-.188.071-.1.042.108-.035.212-.072.322-.1.044-.01.088-.017.133-.026.23-.051-.258.012-.039.008.113 0 .225-.01.338 0a.771.771 0 0 0 .135.011l-.174-.024c.045.006.089.015.133.024a2.436 2.436 0 0 1 .261.069c.035.011.235.1.05.013s.07.039.1.057c.069.038.152.127.226.144l-.128-.1c.035.028.068.059.1.09s.063.065.1.1c.141.136-.054-.05-.046-.073a1.6 1.6 0 0 0 .113.184c.063.1-.023.1-.032-.08a1.466 1.466 0 0 0 .061.208c.007.031.044.269.017.062s0 .036 0 .066c.005.1.006.2 0 .3 0 .122-.011.242-.021.363a.9.9 0 0 0-.014.136c.027-.194.032-.228.013-.1a2.596 2.596 0 0 1-.017.1c-.019.1-.041.2-.068.3a2.081 2.081 0 0 0-.107.324c0-.023.125-.256.035-.092-.021.038-.041.078-.063.117a1.032 1.032 0 0 0-.109.165l.1-.131c-.029.033-.059.066-.09.1s-.07.057-.1.088c.176-.2.13-.1.025-.035l-.035.02q-.17.084.057-.015a.627.627 0 0 1-.152.055c-.136.045-.274.071-.413.105s-.046-.049.052 0a1.252 1.252 0 0 0-.258.02c-.159.007-.315-.007-.474-.012-.178-.006.284.058.009 0-.085-.018-.169-.034-.253-.056-.049-.013-.1-.027-.145-.042s-.1-.031-.143-.05c.149.065.183.079.1.041a1.585 1.585 0 0 1-.163-.093s.2.194.015 0c-.031-.031-.057-.07-.088-.1.215.2.085.107.033.014-.016-.028-.12-.229-.027-.043s-.016-.073-.029-.118-.022-.089-.031-.133-.013-.068-.018-.1c-.015-.09-.009-.045.018.138a2.492 2.492 0 0 0-.016-.411 1.159 1.159 0 1 0-2.318 0" data-name="Path 68573"/>
      <path d="m15.622 7.083.118 5.91a1.159 1.159 0 1 0 2.318 0l-.118-5.91a1.159 1.159 0 0 0-2.318 0" data-name="Path 68574"/>
      <path d="M2.247 24.24a19.81 19.81 0 0 1 4.712-5.5 13.6 13.6 0 0 1 6.029-3.161 16.429 16.429 0 0 1 12.805 2.695c1.982 1.329 4.055 3.109 4.892 5.414a1.189 1.189 0 0 0 1.425.809 1.168 1.168 0 0 0 .809-1.426 13.677 13.677 0 0 0-4.886-6.031 20.644 20.644 0 0 0-6.887-3.474 16.737 16.737 0 0 0-14.818 2.688 31.565 31.565 0 0 0-3.277 3.072 15.669 15.669 0 0 0-2.805 3.739 1.187 1.187 0 0 0 .416 1.585 1.169 1.169 0 0 0 1.585-.415" data-name="Path 68575"/>
      <path d="M27.501 18.986V35a1.16 1.16 0 0 0 2.318 0V18.986a1.16 1.16 0 0 0-2.318 0" data-name="Path 68576"/>
      <path d="M21.15 15.044v11.99h2.174v-.238a1.088 1.088 0 0 0-2.174 0v.238a1.088 1.088 0 0 0 2.174 0v-11.99a1.088 1.088 0 0 0-2.174 0" data-name="Path 68577"/>
      <path d="M11.338 15.134v20.039a1.16 1.16 0 0 0 2.318 0V15.134a1.16 1.16 0 0 0-2.318 0" data-name="Path 68578"/>
      <path d="M3.973 19.068v7.964a1.159 1.159 0 1 0 2.318 0v-7.964a1.159 1.159 0 0 0-2.318 0" data-name="Path 68579"/>
      <path d="m3.873 26.508-.518 1.1-.259.551c-.113.24-.377.5.076.2.313-.14.347-.2.1-.168H1.165a1.171 1.171 0 0 0-.82 1.978l1.049.937.5.444c.092.082.184.164.276.247.032.028.063.056.094.084q.086.088-.009-.042l-.067-.462-.025.114a2.736 2.736 0 0 0-.083.352l-.149.633-.331 1.406a1.19 1.19 0 0 0 .533 1.308 1.208 1.208 0 0 0 1.4-.181l.96-.792.452-.374.226-.186.113-.093q.2-.164-.2.12h-.616l-.071-.043q.049.03.1.063c.1.064.2.13.294.2q.293.2.582.4c.386.27.765.548 1.14.832a1.164 1.164 0 0 0 1.743-1q-.07-.726-.141-1.455c-.021-.218-.043-.437-.064-.654a1.853 1.853 0 0 0-.035-.364l-.008-.108c-.039.126-.034.125.013 0l-.3.512c.141-.182-.136.033.08-.067a1.857 1.857 0 0 0 .211-.121 6.908 6.908 0 0 0 .685-.494 5.287 5.287 0 0 0 .9-.908 1.22 1.22 0 0 0 .3-1.128 1.143 1.143 0 0 0-.81-.809l-1.244-.224a7.038 7.038 0 0 0-1.22-.221c.062-.087.4.521.295.2a1.632 1.632 0 0 0-.139-.25l-.278-.5-.626-1.126a1.159 1.159 0 1 0-2 1.169l.7 1.252a3.16 3.16 0 0 0 .939 1.277 4 4 0 0 0 1.426.385l1.537.276-.511-1.937a5.413 5.413 0 0 1-.484.548c-.072.071-.148.139-.225.206-.034.029-.215.167-.1.083-.49.359-1.024.544-1.3 1.127a3.082 3.082 0 0 0-.069 1.667q.082.836.163 1.672l1.744-1q-.619-.47-1.255-.913a3.612 3.612 0 0 0-1.494-.786c-.724-.1-1.23.448-1.74.87l-1.3 1.073 1.937 1.127.381-1.616a3.763 3.763 0 0 0 .2-1.844 3.107 3.107 0 0 0-1.1-1.324l-1.325-1.183-.819 1.978h1.508a3.277 3.277 0 0 0 1.643-.208 2.459 2.459 0 0 0 .912-1.252l.648-1.378a1.191 1.191 0 0 0-.416-1.585 1.168 1.168 0 0 0-1.585.416" data-name="Path 68580"/>
      <path d="m11.181 34.356-.518 1.1c-.087.183-.173.367-.259.551-.113.24-.377.5.076.2q.469-.211.1-.168H8.473a1.171 1.171 0 0 0-.819 1.978l1.049.937.5.444.276.247.094.084c.057.059.054.044-.009-.042l-.067-.461-.025.114a2.766 2.766 0 0 0-.083.352l-.149.633-.331 1.406a1.191 1.191 0 0 0 .533 1.309 1.207 1.207 0 0 0 1.4-.182l.961-.793.452-.372.226-.188.113-.092q.2-.164-.2.12h-.616q-.183-.113-.071-.044c.033.021.065.042.1.064.1.063.2.129.294.195q.293.2.582.4.579.4 1.14.833a1.164 1.164 0 0 0 1.743-1q-.07-.728-.141-1.456c-.021-.217-.043-.436-.064-.654a1.909 1.909 0 0 0-.035-.364l-.009-.108q-.058.19.013 0l-.3.511c.141-.182-.136.033.08-.066a2.224 2.224 0 0 0 .211-.122 6.929 6.929 0 0 0 .685-.494 5.325 5.325 0 0 0 .9-.909 1.22 1.22 0 0 0 .3-1.127 1.142 1.142 0 0 0-.81-.809l-1.244-.224a6.964 6.964 0 0 0-1.22-.222c.062-.087.4.521.294.2a1.686 1.686 0 0 0-.139-.25l-.278-.5-.626-1.126a1.159 1.159 0 1 0-2 1.169q.347.626.7 1.252a3.167 3.167 0 0 0 .939 1.278 4.011 4.011 0 0 0 1.427.384l1.537.276-.512-1.936a5.282 5.282 0 0 1-.483.547 5.49 5.49 0 0 1-.225.206c-.034.029-.216.167-.1.083-.49.358-1.024.543-1.3 1.126a3.085 3.085 0 0 0-.069 1.668q.082.837.163 1.673l1.744-1q-.619-.469-1.256-.913a3.613 3.613 0 0 0-1.494-.787c-.724-.1-1.23.448-1.74.87l-1.3 1.073 1.937 1.127.381-1.616a3.763 3.763 0 0 0 .2-1.844 3.108 3.108 0 0 0-1.1-1.325l-1.325-1.183-.82 1.978h1.508a3.274 3.274 0 0 0 1.643-.208 2.459 2.459 0 0 0 .913-1.252l.648-1.378a1.191 1.191 0 0 0-.416-1.585 1.168 1.168 0 0 0-1.585.415" data-name="Path 68581"/>
      <path d="m27.708 34.356-.518 1.1-.259.551c-.113.24-.377.5.076.2q.469-.211.1-.168h-2.106a1.171 1.171 0 0 0-.82 1.978l1.049.937.5.444.276.247.094.084c.057.059.054.044-.009-.042-.022-.154-.044-.308-.067-.461l-.025.114a2.761 2.761 0 0 0-.083.352l-.149.633-.331 1.406a1.192 1.192 0 0 0 .533 1.309 1.206 1.206 0 0 0 1.4-.182l.96-.793.452-.372.226-.188.113-.092q.2-.164-.2.12h-.616c-.122-.075-.146-.09-.071-.044.033.021.065.042.1.064.1.063.2.129.294.195q.293.2.582.4.578.4 1.14.833a1.164 1.164 0 0 0 1.744-1l-.142-1.456c-.021-.217-.043-.436-.064-.654a1.873 1.873 0 0 0-.035-.364l-.008-.108c-.039.126-.034.125.013 0l-.3.511c.141-.182-.136.033.08-.066a2.168 2.168 0 0 0 .211-.122 6.916 6.916 0 0 0 .685-.494 5.32 5.32 0 0 0 .9-.909 1.221 1.221 0 0 0 .3-1.127 1.142 1.142 0 0 0-.81-.809l-1.244-.224a6.966 6.966 0 0 0-1.219-.222c.062-.087.4.521.294.2a1.739 1.739 0 0 0-.139-.25l-.278-.5-.626-1.126a1.159 1.159 0 1 0-2 1.169q.347.626.7 1.252a3.167 3.167 0 0 0 .938 1.278 4.014 4.014 0 0 0 1.427.384l1.536.276-.511-1.936a5.361 5.361 0 0 1-.484.547 5.49 5.49 0 0 1-.225.206c-.034.029-.215.167-.1.083-.49.358-1.024.543-1.3 1.126a3.085 3.085 0 0 0-.069 1.668q.082.837.163 1.673l1.744-1q-.619-.469-1.255-.913a3.619 3.619 0 0 0-1.494-.787c-.723-.1-1.23.448-1.74.87l-1.3 1.073 1.937 1.127q.191-.808.381-1.616a3.762 3.762 0 0 0 .2-1.844 3.106 3.106 0 0 0-1.1-1.325l-1.324-1.183-.819 1.978h1.508a3.276 3.276 0 0 0 1.643-.208 2.46 2.46 0 0 0 .912-1.252q.324-.688.648-1.378a1.191 1.191 0 0 0-.416-1.585 1.168 1.168 0 0 0-1.585.415" data-name="Path 68582"/>
      <path d="M19.922 28.589a2.754 2.754 0 0 1 1.75.659 1.24 1.24 0 0 1 .5 1.083 2.819 2.819 0 0 1-2.485 2.7c.726-.063 1.6.452 2.4.4a3.594 3.594 0 0 0 2.253-.947 2.731 2.731 0 0 0 .028-3.9c-1.313-1.5-3.019-1.267-4.447 0" data-name="Path 68583"/>
      <path d="M19.923 29.749a1.261 1.261 0 0 0 .238.013c-.09.026-.232-.04-.033 0 .065.013.129.029.193.047a1.172 1.172 0 0 0 .226.074c-.07.017-.214-.1-.021-.006.059.029.117.06.175.094a1.435 1.435 0 0 0 .2.13c-.067 0-.179-.153-.017-.009.05.044.1.092.143.138.067.078.07.08.008.007s-.059-.072 0 .014c-.059-.128-.069-.143-.015 0 .047.124 0-.223 0-.007v.223c0 .046-.014.255 0 .048s0 0-.016.046c-.015.065-.033.13-.053.2s-.038.106-.056.16c-.045.135.117-.24.023-.059a3.693 3.693 0 0 1-.185.323.825.825 0 0 0-.1.139c.106-.135.131-.169.076-.1a4.646 4.646 0 0 1-.067.078 3.037 3.037 0 0 1-.241.239 1.602 1.602 0 0 1-.078.066c-.067.055-.034.03.1-.077-.045.01-.1.071-.14.1-.1.065-.234.107-.326.181.064-.051.239-.093.058-.027-.053.019-.107.036-.16.052s-.132.033-.2.049c-.216.051.276-.027.039 0a1.249 1.249 0 0 0-.82.339 1.159 1.159 0 0 0 .82 1.978 2.068 2.068 0 0 0 .35.009l-.163-.02c.05.008.1.018.148.028l.15.035c.283.07.56.159.844.225a4.488 4.488 0 0 0 4.948-2.261 3.957 3.957 0 0 0-.177-3.62 4.228 4.228 0 0 0-2.8-2.124 4.663 4.663 0 0 0-3.879 1.307 1.166 1.166 0 0 0 0 1.639 1.187 1.187 0 0 0 1.638 0l.121-.105c.021-.018.228-.153.068-.056-.141.086 0 0 .038-.024q.078-.054.157-.106a6.5 6.5 0 0 1 .575-.31c-.3.151-.046.024.048 0a3.008 3.008 0 0 1 .293-.078 1.3 1.3 0 0 0 .163-.029c-.02.007-.3.022-.113.02.109 0 .216-.01.325 0 .043 0 .087.009.129.01-.291 0-.205-.033-.115-.014s.192.043.286.072c.043.014.084.03.126.044.14.045-.222-.107-.09-.038.1.055.207.1.306.168.016.01.15.1.15.1s-.221-.191-.057-.042c.077.07.157.138.23.212s.16.176.239.264c.1.112-.132-.188-.048-.063.04.06.082.117.12.177.056.089.109.181.157.274a1.031 1.031 0 0 0 .06.125c-.012-.017-.1-.266-.038-.086s.089.4.154.585c-.087-.254-.024-.2-.016-.078 0 .044 0 .089.005.132a1.7 1.7 0 0 0-.011.3c0-.019.056-.3.015-.113-.01.043-.016.087-.026.13-.025.108-.073.211-.1.318.052-.234.082-.178.038-.09-.021.041-.04.081-.062.122-.051.092-.11.177-.167.267-.085.132.2-.213.026-.036-.034.036-.066.074-.1.11-.072.075-.239.171-.284.262.011-.023.219-.154.048-.04-.043.029-.086.059-.129.087a3.46 3.46 0 0 1-.3.173c-.046.023-.094.044-.14.066-.14.07.21-.073.062-.028-.124.039-.245.085-.371.117-.063.016-.126.032-.189.044l-.077.015c-.1.017-.1.018 0 0l.077-.01c-.051.006-.1.012-.155.016s-.127.009-.191.009l-.191-.008c0-.008.3.051.039 0-.13-.024-.259-.055-.387-.089a5.625 5.625 0 0 0-1.751-.311v2.318a4.044 4.044 0 0 0 2.343-1.015 3.956 3.956 0 0 0 1.181-1.933 2.74 2.74 0 0 0-.658-2.762 4 4 0 0 0-2.629-1.05 1.168 1.168 0 0 0-1.159 1.159 1.182 1.182 0 0 0 1.159 1.159" data-name="Path 68584"/>
    </g>
  </g>
</svg>
