<svg xmlns="http://www.w3.org/2000/svg" viewBox="0 0 28.423 29">
  <g data-name="7123025_logo_google_g_icon">
    <path fill="#4280ef" d="M28.423 14.848a18.135 18.135 0 0 0-.253-2.938H14.492v5.591h7.834a6.591 6.591 0 0 1-2.906 4.391l4.672 3.633a14.259 14.259 0 0 0 4.328-10.677Z" data-name="Path 168360"/>
    <path fill="#34a353" d="M14.492 29a13.871 13.871 0 0 0 9.6-3.506l-4.675-3.6A8.8 8.8 0 0 1 6.34 17.312l-4.8 3.7A14.485 14.485 0 0 0 14.492 29Z" data-name="Path 168361"/>
    <path fill="#f6b704" d="M6.342 17.28a8.809 8.809 0 0 1 0-5.56l-4.8-3.728a14.519 14.519 0 0 0 0 13.015Z" data-name="Path 168362"/>
    <path fill="#e54335" d="M14.492 5.75a7.911 7.911 0 0 1 5.56 2.18l4.138-4.17a13.954 13.954 0 0 0-9.7-3.759A14.485 14.485 0 0 0 1.54 7.993l4.8 3.728a8.674 8.674 0 0 1 8.152-5.971Z" data-name="Path 168363"/>
  </g>
</svg>
