<svg xmlns="http://www.w3.org/2000/svg" viewBox="0 0 191.337 51.828">
  <path fill="#00bcfb" d="M42.04 20.708a10.452 10.452 0 0 0-4.674-1.224 12.33 12.33 0 0 0-5.288 1.159 18.682 18.682 0 0 0-5.306 3.789c-2.594-4.249-5.583-6.918-8.883-7.933a8.14 8.14 0 0 0-7.143.987 7.609 7.609 0 0 0-2.665 3.943 11.588 11.588 0 0 0-.192 5.121 18.906 18.906 0 0 0 1.1 4.043 35.717 35.717 0 0 0 3.065 6.242 21.27 21.27 0 0 0 3.768 4.611 10.493 10.493 0 0 0 5.133 2.739 8.633 8.633 0 0 0 4.381-.332 9.282 9.282 0 0 0 2.658-1.459 11.837 11.837 0 0 0 4.37-6.391 2.552 2.552 0 0 0-1.742-3.073 2.356 2.356 0 0 0-1.846.214 2.493 2.493 0 0 0-1.234 1.533 8.516 8.516 0 0 1-.322.953 6.328 6.328 0 0 1-3.6 3.5 3.927 3.927 0 0 1-3.44-.6 13.255 13.255 0 0 1-3.785-4.186 22.667 22.667 0 0 1-3.634-9.088c-.1-.8-.212-2.765.965-3.708a2.628 2.628 0 0 1 2.12-.44c2.32.421 4.508 2.372 6.689 5.965.491.809.98 1.709 1.5 2.75a2.256 2.256 0 0 0 1.72 1.2 2.555 2.555 0 0 0 2.21-.686l.313-.325c.953-.99 1.939-2.015 2.992-2.931a10.05 10.05 0 0 1 5.138-2.536 4.93 4.93 0 0 1 3.9 1.154 4.317 4.317 0 0 1 1.414 3.317c-.038 4.285-3.27 8.142-6.081 11.022-9.365 9.593-17.012 6.481-19.136 5.3-4.721-2.631-7.534-7.62-9.062-11.342a34.4 34.4 0 0 1-2.252-8.1 19.758 19.758 0 0 1 3.074-13.959 14.839 14.839 0 0 1 6.651-5.491 9.023 9.023 0 0 1 4.594-.507 10.172 10.172 0 0 0-.934 6.03 6.1 6.1 0 0 0 2.47 3.85 6.683 6.683 0 0 0 5.143 1.12 6.117 6.117 0 0 0 4.183-3.005 6.791 6.791 0 0 0 .636-5.607 8.918 8.918 0 0 0-2.1-3.3l.181.014c3.1.254 5.176 3.559 5.162 6.488a2.544 2.544 0 0 0 2.5 2.5 2.283 2.283 0 0 0 1.686-.663 2.61 2.61 0 0 0 .817-1.837 12.622 12.622 0 0 0-1.189-5.336 10.933 10.933 0 0 0-3.58-4.226A10.62 10.62 0 0 0 29.421.06a9.5 9.5 0 0 0-5.212.952 7.9 7.9 0 0 0-1.042.6 15.534 15.534 0 0 0-10.973.659A19.46 19.46 0 0 0 4.66 8.418a22.648 22.648 0 0 0-3.968 8.4C-.913 23.401.316 31.301 4.058 38.501c3.178 6.117 7.75 10.521 12.871 12.4a15.705 15.705 0 0 0 5.417.923 19.05 19.05 0 0 0 5.358-.788c3.489-1.024 6.252-2.919 9.326-5.449a34.464 34.464 0 0 0 6.147-6.9 17.241 17.241 0 0 0 3.555-9.949 9.227 9.227 0 0 0-4.692-8.03Zm-15.724-9.941a1.507 1.507 0 0 1-.636 1.024 1.492 1.492 0 0 1-1.171.224 1.362 1.362 0 0 1-.9-.658 2.273 2.273 0 0 1-.177-1.389 5.722 5.722 0 0 1 .471-1.573c.115-.251.24-.516.383-.771a3.276 3.276 0 0 1 .374.264l.083.063c.828.683 1.757 1.62 1.573 2.816Zm135.021 4.3a10.983 10.983 0 0 0-10.807 9.706 2.145 2.145 0 0 0-.046.437v.1c-.01.223-.015.422-.015.626a10.863 10.863 0 0 0 19.1 7.084 1.9324 1.9324 0 0 0-2.931-2.519 7 7 0 0 1-11.985-2.46l-.165-.524.544.071a48.937 48.937 0 0 0 15.576-.48 1.929 1.929 0 0 0 1.559-2.058 10.944 10.944 0 0 0-10.83-9.985Zm6.177 8.638a44.987 44.987 0 0 1-12.36 0l-.45-.063.177-.419a7 7 0 0 1 12.906 0l.179.419Zm23.823 10.715a1.934 1.934 0 0 1-1.932 1.932h-13.493a1.933 1.933 0 0 1-1.543-3.1l10.353-13.743h-8.667a1.9325 1.9325 0 0 1 0-3.865h12.546a1.932 1.932 0 0 1 1.543 3.1l-10.352 13.741h9.612a1.934 1.934 0 0 1 1.933 1.933Zm-44.592-10.619v11.066a1.932 1.932 0 1 1-3.864 0V23.801a4.876 4.876 0 0 0-9.752 0v11.066a1.9325 1.9325 0 1 1-3.865 0V23.801a4.876 4.876 0 0 0-9.752 0v11.066a1.9325 1.9325 0 0 1-3.865 0V23.801c0-2.33-.2-3.17-.909-3.905a2.213 2.213 0 0 1-.509-2.159 2.128 2.128 0 0 1 2.357-1.448 3.33 3.33 0 0 1 1.569.943l.485.481.244-.2a9.223 9.223 0 0 1 6.328-2.41 7.962 7.962 0 0 1 5.721 2.925l.262.3.261-.3a8.728 8.728 0 0 1 15.286 5.77Zm-58.331 0v11.066a1.9325 1.9325 0 1 1-3.865 0V23.801a4.876 4.876 0 0 0-9.752 0v11.066a1.9325 1.9325 0 0 1-3.865 0V23.801a4.876 4.876 0 0 0-9.752 0v11.066a1.9325 1.9325 0 1 1-3.865 0V23.801c0-2.33-.2-3.17-.909-3.905a2.218 2.218 0 0 1-.509-2.159 2.124 2.124 0 0 1 2.356-1.448 3.333 3.333 0 0 1 1.57.942l.486.482.244-.2a9.218 9.218 0 0 1 6.328-2.41 7.965 7.965 0 0 1 5.721 2.925l.261.3.262-.3a8.728 8.728 0 0 1 15.286 5.77Zm22-6.807v10.669a9.136 9.136 0 1 1-18.272 0V17.001a1.9325 1.9325 0 0 1 3.865 0v10.662a5.271 5.271 0 1 0 10.542 0V17.001a1.9325 1.9325 0 0 1 3.865 0Z" data-name="Path 35388"/>
</svg>
