<svg xmlns="http://www.w3.org/2000/svg" xmlns:xlink="http://www.w3.org/1999/xlink" width="88.366" height="95.114" viewBox="0 0 88.366 95.114"><defs><clipPath id="a"><rect width="88.366" height="95.114" transform="translate(0 0)" fill="#fe4ec0"/></clipPath></defs><g transform="translate(0 0)"><g clip-path="url(#a)"><path d="M55.44,90.274A32.987,32.987,0,1,0,22.454,57.287,33.014,33.014,0,0,0,55.44,90.274" fill="#ffb41d" fill-rule="evenodd"/><path d="M39.487,21.96A69.255,69.255,0,0,1,36.66,11.652a50.046,50.046,0,0,1-.75-5.007,2.969,2.969,0,0,1,.039-1.37,2.517,2.517,0,0,1,1.078-.419,13.88,13.88,0,0,1,7.137.308,5.451,5.451,0,0,1,2.393,1.608,5.784,5.784,0,0,1,1.076,3.443c.07,3.641-1.733,7.026-2.242,10.593a2.368,2.368,0,0,0,1.6,2.818,2.307,2.307,0,0,0,2.819-1.6c.569-3.992,2.484-7.715,2.4-11.811a9.718,9.718,0,0,0-5.411-8.892A17.606,17.606,0,0,0,36.795.266a6.373,6.373,0,0,0-4.713,2.567c-1.2,1.89-.737,4.189-.453,6.266a69.774,69.774,0,0,0,3.439,14.08,2.348,2.348,0,0,0,2.818,1.6,2.312,2.312,0,0,0,1.6-2.819"/><path d="M52.48,21.9A46.147,46.147,0,0,0,42.6,20.289a25.409,25.409,0,0,0-8.723.724,9.879,9.879,0,0,0-6.259,5.017,10.317,10.317,0,0,0-.257,7.761c2.082,5.748,7.656,8.347,13.42,8.9,5.424.522,12.2-.268,15.324-5.332a11.277,11.277,0,0,0-2.783-14.694,2.307,2.307,0,0,0-3.136.823,2.348,2.348,0,0,0,.822,3.135c2.2,1.66,2.647,5.356,1.522,7.727-1.733,3.655-6.638,4-10.352,3.852-3.871-.151-8.28-1.349-10.15-5.074a6.2,6.2,0,0,1-.473-4.666,5.111,5.111,0,0,1,3.54-3.033,21.8,21.8,0,0,1,7.505-.56,40.353,40.353,0,0,1,8.658,1.445c2.847.786,4.062-3.634,1.218-4.42"/><path d="M59.668,40.587a74.34,74.34,0,0,0-23.45-2.441c-3.43.2-6.964.61-10.026,2.286a10.545,10.545,0,0,0-5.458,7.533A7.932,7.932,0,0,0,24.446,56c2.819,1.795,6.458,2.138,9.686,2.579a105.26,105.26,0,0,0,11.641.965c3.731.093,8.1.441,11.641-.949C63.367,56.26,66,48.25,62.335,42.9a2.352,2.352,0,0,0-3.136-.822,2.314,2.314,0,0,0-.822,3.136c2,2.914,1.009,7.641-2.448,9.07A11.564,11.564,0,0,1,52,54.927c-1.751.074-3.507.084-5.26.057q-4.813-.073-9.606-.607A44.545,44.545,0,0,1,28.6,52.886c-1.87-.6-3.6-1.8-3.393-3.975.523-5.425,7.575-6.02,11.726-6.22a70.167,70.167,0,0,1,21.52,2.315c2.852.762,4.069-3.658,1.218-4.419"/><path d="M27.961,56.476c-4.4-.227-9.313.1-12.738,3.227-2.792,2.548-4.034,7.224-2.131,10.631,2.471,4.422,8.432,4.027,12.777,4.253q8.063.421,16.138.442,8.2.021,16.387-.369c4.469-.214,9.233-.742,12.071-4.641A10.091,10.091,0,0,0,70.8,58.646a10.347,10.347,0,0,0-10.7-4.126c-1.212.284-2.365.839-3.557,1.2a36.936,36.936,0,0,1-4.11,1,45.153,45.153,0,0,1-7.857.652c-5.552.038-11.084-.583-16.621-.895-2.947-.167-2.937,4.417,0,4.583,8.35.471,16.725,1.58,25.048.193a36.653,36.653,0,0,0,6.058-1.534c1.468-.512,2.761-1.1,4.345-.789a5.224,5.224,0,0,1,4.373,5.8c-.43,3.316-3.233,4.746-6.275,5.126a124.373,124.373,0,0,1-13.294.544,255.715,255.715,0,0,1-27.545-.721c-1.413-.13-3.183-.443-3.737-1.935a4.5,4.5,0,0,1,.666-3.79c2.075-3.244,7.012-3.07,10.361-2.9,2.948.15,2.939-4.433,0-4.583"/><path d="M19.427,70.311a36.227,36.227,0,0,0-10.012.809c-2.666.595-5.734,1.4-7.626,3.509-4.251,4.746-.129,11.172,4.06,14.2,4.354,3.148,9.9,4.118,15.1,4.811A174.3,174.3,0,0,0,40.867,95.08c6.667.118,13.338-.082,19.995-.453,5.325-.3,11.311-.364,15.61-3.977a10.783,10.783,0,0,0-4.783-18.777c-2.954-.605-6,.215-8.96.448-14.457,1.137-28.9-1.05-43.3-2.01-2.944-.2-2.932,4.388,0,4.583,11.47.765,22.9,2.275,34.414,2.319,2.81.011,5.622-.067,8.425-.274q1.964-.144,3.921-.378a18.058,18.058,0,0,1,3.835-.336A6.266,6.266,0,0,1,75.3,84.546c-1.4,4.14-6.468,4.931-10.229,5.233-5.772.464-11.586.662-17.375.733-5.849.071-11.7-.062-17.537-.5a82.054,82.054,0,0,1-15.435-2.172A19.355,19.355,0,0,1,8.1,84.83c-1.692-1.272-3.56-3.344-3.47-5.614.1-2.417,3.212-2.986,5.081-3.459a31.854,31.854,0,0,1,9.714-.863c2.946.172,2.937-4.411,0-4.583"/></g></g></svg>