<svg xmlns="http://www.w3.org/2000/svg" xmlns:xlink="http://www.w3.org/1999/xlink" width="98.385" height="81.183" viewBox="0 0 98.385 81.183"><defs><clipPath id="a"><rect width="98.385" height="81.183" fill="none"/></clipPath></defs><g transform="translate(0 0)"><g transform="translate(0 0)" clip-path="url(#a)"><path d="M66.144,73.971A32.646,32.646,0,1,0,33.5,41.324,32.673,32.673,0,0,0,66.144,73.971" transform="translate(-0.346 -0.089)" fill="#06cc43" fill-rule="evenodd"/><path d="M64.4,11.723c.611-4.61,5.059-8.159,9.7-8.485s9.188,2.14,12.15,5.726a11.744,11.744,0,0,1,2.6,5.03c1.191,5.849-4.354,11.39-10.257,12.278" transform="translate(-0.665 -0.033)" fill="none" stroke="#000" stroke-linecap="round" stroke-linejoin="round" stroke-width="6.416"/><path d="M70.1,16.105a5.133,5.133,0,0,1,6.765-4.33c2.9,1.21,5.211,6.647-.1,10.066" transform="translate(-0.724 -0.118)" fill="none" stroke="#000" stroke-linecap="round" stroke-linejoin="round" stroke-width="4.583"/><path d="M27.816,13.566c-.611-4.61-5.06-8.159-9.7-8.485S8.929,7.22,5.967,10.807a11.744,11.744,0,0,0-2.6,5.03C2.18,21.685,7.724,27.227,13.627,28.114" transform="translate(-0.033 -0.052)" fill="none" stroke="#000" stroke-linecap="round" stroke-linejoin="round" stroke-width="6.416"/><path d="M23.715,17.756a5.133,5.133,0,0,0-6.765-4.33c-2.9,1.209-5.211,6.647.1,10.065" transform="translate(-0.143 -0.135)" fill="none" stroke="#000" stroke-linecap="round" stroke-linejoin="round" stroke-width="4.583"/><path d="M80.046,30.436a32.918,32.918,0,0,0-8.97-12.728,42.126,42.126,0,0,0-7.354-5.065,12.912,12.912,0,0,0-3.052-1.56,44,44,0,0,0-4.735-1.07,45.521,45.521,0,0,0-14.856-.065c-4.531.73-9.062,1.814-12.816,4.58A35.351,35.351,0,0,0,16.5,29.612,39.089,39.089,0,0,0,18.518,62.14a29.847,29.847,0,0,0,8.608,10.306c5.509,3.982,12.5,5.361,19.3,5.615,8.086.3,16.481-.946,23.313-5.282C79.634,66.5,84.217,54.2,83.2,42.82a47.643,47.643,0,0,0-2.8-11.408Q80.231,30.922,80.046,30.436Z" transform="translate(-0.143 -0.096)" fill="none" stroke="#000" stroke-linecap="round" stroke-linejoin="round" stroke-width="6.416"/><path d="M33.74,76.161A22.361,22.361,0,0,1,30.2,58.871c1.543-6.666,7.04-12.455,13.78-13.669a25.013,25.013,0,0,1,10.387.753c3.147.78,6.341,1.913,8.627,4.208a14.375,14.375,0,0,1,3.129,5.153A22.3,22.3,0,0,1,62.9,76.37" transform="translate(-0.307 -0.464)" fill="none" stroke="#000" stroke-linecap="round" stroke-linejoin="round" stroke-width="6.416"/><path d="M56.285,71.214c-2.4.544-4.684-1.505-5.627-3.774s-1.021-4.8-1.785-7.139q-.355,2.365-.712,4.732a10.458,10.458,0,0,1-.847,3.226,5.386,5.386,0,0,1-6.337,2.56" transform="translate(-0.423 -0.622)" fill="none" stroke="#000" stroke-linecap="round" stroke-linejoin="round" stroke-width="4.583"/><path d="M53.9,51.844c-4.06.361-6.771-.408-10.779.329a.984.984,0,0,0-.633.287c-.235.3-.046.741.153,1.069A29.945,29.945,0,0,0,44.929,56.8a2.511,2.511,0,0,0,.718.677,2.622,2.622,0,0,0,1.232.218l5.23.072a.893.893,0,0,0,1.118-.96q.337-2.481.673-4.963" transform="translate(-0.438 -0.535)" fill="none" stroke="#000" stroke-linecap="round" stroke-linejoin="round" stroke-width="4.583"/><path d="M58.311,43.935a3.777,3.777,0,0,0,5.458,2.389,4.187,4.187,0,0,0,1.61-3.564C65.2,38.177,57.521,39.5,58.311,43.935Z" transform="translate(-0.602 -0.412)" fill="none" stroke="#000" stroke-linecap="round" stroke-linejoin="round" stroke-width="4.583"/><path d="M31.961,44.321a3.777,3.777,0,0,0,5.457,2.389,4.185,4.185,0,0,0,1.611-3.564C38.853,38.563,31.17,39.886,31.961,44.321Z" transform="translate(-0.33 -0.416)" fill="none" stroke="#000" stroke-linecap="round" stroke-linejoin="round" stroke-width="4.583"/></g></g></svg>