<svg xmlns="http://www.w3.org/2000/svg" xmlns:xlink="http://www.w3.org/1999/xlink" width="77.924" height="74.534" viewBox="0 0 77.924 74.534"><defs><clipPath id="a"><rect width="77.924" height="74.534" fill="none"/></clipPath></defs><g transform="translate(0 0)"><g transform="translate(0 0)" clip-path="url(#a)"><path d="M53.073,73.567A28.365,28.365,0,1,0,24.709,45.2,28.389,28.389,0,0,0,53.073,73.567" transform="translate(-3.462 -2.358)" fill="#e35cff" fill-rule="evenodd"/><path d="M44.366,32.339c7.313-4.68,9.213-15.913,4-22.859S32.05,1.132,25.155,6.408s-8.519,16.167-3.63,23.342a20.71,20.71,0,0,0-9.553,33.527c7.849,8.9,21.355,9.436,33.2,8.727,6.92-.414,14.3-1.208,19.64-5.634C70.537,61.621,72.6,53.542,71.9,46.138S68.126,31.789,65.1,25a26.662,26.662,0,0,1-25.367,6.682" transform="translate(-0.956 -0.449)" fill="none" stroke="#000" stroke-linecap="round" stroke-linejoin="round" stroke-width="6.416"/><path d="M15.8,21.112A32.884,32.884,0,0,1,3.208,22.723a10.925,10.925,0,0,0,9.439,9.234" transform="translate(-0.449 -2.958)" fill="none" stroke="#000" stroke-linecap="round" stroke-linejoin="round" stroke-width="6.416"/><path d="M28.519,52.034C28.3,59.452,36.067,65.165,43.487,65.3s14.278-3.758,20.422-7.922" transform="translate(-3.995 -7.29)" fill="none" stroke="#000" stroke-linecap="round" stroke-linejoin="round" stroke-width="6.416"/></g></g></svg>