<svg xmlns="http://www.w3.org/2000/svg" xmlns:xlink="http://www.w3.org/1999/xlink" width="81.365" height="92.874" viewBox="0 0 81.365 92.874"><defs><clipPath id="a"><rect width="81.365" height="92.874" transform="translate(0 0)" fill="none"/></clipPath></defs><g transform="translate(0 0)"><g clip-path="url(#a)"><path d="M32.986,92.875A32.987,32.987,0,1,0,0,59.888,33.014,33.014,0,0,0,32.986,92.875" fill="#4d55ff" fill-rule="evenodd"/><path d="M36.928,38.941l-1.74-7.8a70.359,70.359,0,0,1-1.531-7.1,5.237,5.237,0,0,1,4.886-6.076c1.913-.044,3.655-2.369,2.375-4.137A8.045,8.045,0,0,1,39,8.84a3.553,3.553,0,0,1,2.025-3.226,3.341,3.341,0,0,1,3.333,1,5.555,5.555,0,0,1,1.181,4.44,2.751,2.751,0,0,0,2.75,2.75c9.653-1.245,12.02,12.26,12.7,19.165a2.827,2.827,0,0,0,2.75,2.75,2.769,2.769,0,0,0,2.75-2.75c-.562-5.727-1.585-11.893-4.559-16.921C59.164,11.37,53.96,7.573,48.291,8.3l2.75,2.749A10.623,10.623,0,0,0,48.119,2.59,8.876,8.876,0,0,0,39.4.38,8.769,8.769,0,0,0,33.687,7.2a12.469,12.469,0,0,0,2.482,9.4l2.374-4.138a10.749,10.749,0,0,0-10.394,9.609c-.279,2.935.722,5.986,1.356,8.823q1.059,4.752,2.12,9.5c.77,3.453,6.074,1.992,5.3-1.462"/><path d="M63.9,20.665A180.179,180.179,0,0,1,44.829,24.7c-6.126.955-12.309,1.76-18.159,3.911a2.825,2.825,0,0,0-1.92,3.383,2.771,2.771,0,0,0,3.382,1.92c5.85-2.151,12.033-2.955,18.159-3.91A180.179,180.179,0,0,0,65.36,25.969c3.414-.919,1.965-6.227-1.462-5.3"/><path d="M70.591,37.712c-.827-2.619-2.034-5.35-4.717-6.5-3.075-1.313-6.988.165-10.088.848q-9.555,2.1-18.959,4.835c-2.845.829-5.727,1.982-6.829,4.989-1.119,3.052.371,6.592,1.161,9.559,1.649,6.2,3.323,12.388,5.143,18.536C38.143,76.2,40.116,82.4,42.4,88.467a5.546,5.546,0,0,0,2.507,3.366c1.553.8,3.643.584,5.339.576a78.194,78.194,0,0,0,9.463-.623A82.88,82.88,0,0,0,69.3,90.032c2.9-.719,6.073-1.441,8.487-3.3C82.649,83,81.6,76.626,80.161,71.457q-3-10.769-6.021-21.532c-.947-3.389-1.792-6.829-2.9-10.171a19.284,19.284,0,0,0-4.7-8.143c-2.563-2.44-6.458,1.443-3.888,3.889,3.36,3.2,4.119,8.5,5.314,12.776q2.376,8.494,4.75,16.987c.791,2.829,1.6,5.652,2.373,8.487a15.848,15.848,0,0,1,.805,5.874,4.332,4.332,0,0,1-2.95,3.608,44.808,44.808,0,0,1-7.886,2.131A74,74,0,0,1,48.824,86.9q-.476,0-.949-.018c-.372-.012-1.136-.3-.523.111.693.469.349,0,.184-.441q-.792-2.142-1.541-4.3-1.381-3.972-2.637-7.985c-1.707-5.429-3.269-10.9-4.77-16.389q-1.112-4.059-2.187-8.128c-.346-1.3-.71-2.6-1.034-3.9-.168-.679-.5-1.766-.1-2.329.491-.684,1.775-.954,2.551-1.185,1.563-.466,3.135-.9,4.707-1.334Q47.245,39.712,52,38.572t9.553-2.119a6.031,6.031,0,0,1,1.815-.258.866.866,0,0,1,.7.333,7.206,7.206,0,0,1,1.22,2.646c1.062,3.362,6.374,1.926,5.3-1.462"/><path d="M52.332,49.387a112.844,112.844,0,0,0,17.631-3.553,2.75,2.75,0,1,0-1.462-5.3q-4.069,1.174-8.22,2.037c-2.627.541-5.551,1.025-7.949,1.319a2.822,2.822,0,0,0-2.75,2.75c.06,1.339,1.221,2.936,2.75,2.749"/><path d="M53.063,60.476a182.339,182.339,0,0,1,18.753-3.771c1.471-.217,2.279-2.078,1.92-3.383a2.819,2.819,0,0,0-3.382-1.92A182.129,182.129,0,0,0,51.6,55.173a2.75,2.75,0,0,0,1.462,5.3"/><path d="M56.3,69.616a166.913,166.913,0,0,0,18.139-4.865,2.812,2.812,0,0,0,1.921-3.382,2.778,2.778,0,0,0-3.383-1.921A167.371,167.371,0,0,1,54.84,64.313a2.75,2.75,0,0,0,1.462,5.3"/><path d="M57.493,79.407A32.193,32.193,0,0,0,68.08,77.683c3.372-1.007,6.734-2.052,10.1-3.08a2.75,2.75,0,1,0-1.463-5.3c-3.245.99-6.488,1.99-9.736,2.969a28.4,28.4,0,0,1-9.489,1.638,2.75,2.75,0,1,0,0,5.5"/></g></g></svg>