<svg xmlns="http://www.w3.org/2000/svg" xmlns:xlink="http://www.w3.org/1999/xlink" width="86.655" height="86.363" viewBox="0 0 86.655 86.363"><defs><clipPath id="a"><rect width="86.655" height="86.363" fill="none"/></clipPath></defs><g clip-path="url(#a)"><path d="M31.241,81.3A29.535,29.535,0,1,0,1.707,51.764,29.559,29.559,0,0,0,31.241,81.3" transform="translate(-0.179 -2.326)" fill="#ff8d76" fill-rule="evenodd"/><path d="M31.371,3.749C23.55,2.8,15.732,5.665,8.868,9.531a12.7,12.7,0,0,0-3.3,2.407C3.3,14.455,3.193,18.184,3.209,21.57a9.6,9.6,0,0,0,.939,5.007c1.241,2.036,3.883,2.858,6.254,2.609a19.077,19.077,0,0,0,6.662-2.473" transform="translate(-0.336 -0.373)" fill="none" stroke="#000" stroke-linecap="round" stroke-linejoin="round" stroke-width="6.416"/><line x1="0.008" transform="translate(20.332 4.219)" fill="none" stroke="#000" stroke-linecap="round" stroke-linejoin="round" stroke-width="6.416"/><path d="M30.181,3.529a4.648,4.648,0,0,1,1.6-.32c1.329.015,2.461.894,3.57,1.616A18.323,18.323,0,0,0,53.43,5.72,20.107,20.107,0,0,1,58.1,3.512a7.314,7.314,0,0,1,1.117-.155,17.437,17.437,0,0,1,2.855.1c2.143.189,4.292.386,6.435.575a2.893,2.893,0,0,1,1.715.533,2.972,2.972,0,0,1,.657,2.3q-.111,16.842-.222,33.69c-.049,7.542-.107,15.109-1.288,22.56-.837,5.244-2.38,10.661-6.106,14.445-4.1,4.16-10.193,5.686-16.02,6.138-7.583.591-15.962-.656-21.148-6.22-4.334-4.637-5.523-11.178-5.942-17.645-.09-1.3-.148-2.594-.2-3.873q-.886-25.139-.189-50.292" transform="translate(-2.036 -0.336)" fill="none" stroke="#000" stroke-linecap="round" stroke-linejoin="round" stroke-width="6.416"/><path d="M60.294,3.374c.55,3.775-1.749,7.657-5.039,9.659-3.439,2.084-7.714,2.388-11.7,1.789a20.288,20.288,0,0,1-8.584-3.185,12.644,12.644,0,0,1-5.228-7.361" transform="translate(-3.113 -0.353)" fill="none" stroke="#000" stroke-linecap="round" stroke-linejoin="round" stroke-width="6.416"/><path d="M77.714,5.648a44.918,44.918,0,0,0,8.73,6.015c2.128,1.121,4.572,2.322,5.275,4.622.517,1.692-.084,3.5-.68,5.166l-2.573,7.2a2.328,2.328,0,0,1-.483.9,2.1,2.1,0,0,1-1.326.472A10.038,10.038,0,0,1,77.8,25.951" transform="translate(-8.132 -0.591)" fill="none" stroke="#000" stroke-linecap="round" stroke-linejoin="round" stroke-width="6.416"/><path d="M71.465,68.8c-4.53-.421-8.765,2.409-11.816,5.784a31.651,31.651,0,0,0-6.916,12.436c-.234.811-.434,1.631-.634,2.451" transform="translate(-5.452 -7.195)" fill="none" stroke="#000" stroke-linecap="round" stroke-linejoin="round" stroke-width="6.416"/><path d="M20.233,66.445A20.708,20.708,0,0,1,33.774,71.3a15.149,15.149,0,0,1,3.586,4.636,21.129,21.129,0,0,1,1.724,5.475,38.384,38.384,0,0,1,.657,8.051" transform="translate(-2.117 -6.953)" fill="none" stroke="#000" stroke-linecap="round" stroke-linejoin="round" stroke-width="6.416"/><path d="M35.358,71.124C37.2,69,39.166,66.864,41.743,65.748a16.084,16.084,0,0,1,6.812-1.009,17.956,17.956,0,0,1,6.516,1.174,8.415,8.415,0,0,1,4.669,4.505" transform="translate(-3.7 -6.773)" fill="none" stroke="#000" stroke-linecap="round" stroke-linejoin="round" stroke-width="6.416"/></g></svg>