<svg xmlns="http://www.w3.org/2000/svg" xmlns:xlink="http://www.w3.org/1999/xlink" width="92" height="86.41" viewBox="0 0 92 86.41"><defs><clipPath id="a"><rect width="92" height="86.41" transform="translate(0 0.001)" fill="none"/></clipPath></defs><g transform="translate(0 0)"><g clip-path="url(#a)"><path d="M35.821,65.974A32.987,32.987,0,1,0,2.835,32.987,33.014,33.014,0,0,0,35.821,65.974" fill="#00bcfb" fill-rule="evenodd"/><path d="M34.378,45.612H7.794a6.426,6.426,0,0,0-6.419,6.419V78.615a6.426,6.426,0,0,0,6.419,6.42H34.378a6.427,6.427,0,0,0,6.42-6.42V52.031a6.427,6.427,0,0,0-6.42-6.419m3.688,33A3.692,3.692,0,0,1,34.378,82.3H7.794a3.691,3.691,0,0,1-3.687-3.688V52.031a3.691,3.691,0,0,1,3.687-3.687H34.378a3.691,3.691,0,0,1,3.688,3.687Z"/><path d="M23.794,63.779a6.122,6.122,0,0,0-7.251-9.835,1.362,1.362,0,0,0-2.666.4V76.306a1.366,1.366,0,0,0,2.731,0V76.1a7.205,7.205,0,1,0,7.186-12.32M21.087,74.94a4.443,4.443,0,0,1-3.587-1.8,1.358,1.358,0,0,0-.892-.53v-15.9a1.354,1.354,0,0,0,1.119-.264,3.352,3.352,0,0,1,2.116-.74,3.394,3.394,0,1,1,0,6.788,1.366,1.366,0,0,0-.711,2.533l1.245.757a1.354,1.354,0,0,0,.71.2,4.478,4.478,0,1,1,0,8.956"/><path d="M84.205,45.612H57.621A6.426,6.426,0,0,0,51.2,52.031V78.615a6.426,6.426,0,0,0,6.419,6.42H84.205a6.427,6.427,0,0,0,6.42-6.42V52.031a6.427,6.427,0,0,0-6.42-6.419m3.688,33A3.692,3.692,0,0,1,84.205,82.3H57.621a3.691,3.691,0,0,1-3.687-3.688V52.031a3.691,3.691,0,0,1,3.687-3.687H84.205a3.691,3.691,0,0,1,3.688,3.687Z"/><path d="M77.993,71.063a1.366,1.366,0,0,0-1.886.418,5.271,5.271,0,0,1-4.258,2.772c-3.206,0-5.914-4.088-5.914-8.928s2.708-8.93,5.914-8.93a5,5,0,0,1,3.929,2.295,1.366,1.366,0,1,0,2.2-1.626,7.654,7.654,0,0,0-6.125-3.4c-4.768,0-8.646,5.231-8.646,11.662s3.878,11.661,8.646,11.661a7.923,7.923,0,0,0,6.562-4.037,1.366,1.366,0,0,0-.418-1.886"/><path d="M32.708,44.4H59.291a6.427,6.427,0,0,0,6.42-6.42V11.393a6.427,6.427,0,0,0-6.42-6.42H32.708a6.427,6.427,0,0,0-6.42,6.42V37.977a6.427,6.427,0,0,0,6.42,6.42m-3.688-33A3.692,3.692,0,0,1,32.708,7.7H59.291a3.692,3.692,0,0,1,3.688,3.688V37.977a3.691,3.691,0,0,1-3.688,3.687H32.708a3.691,3.691,0,0,1-3.688-3.687Z"/><path d="M38.424,35.617a1.342,1.342,0,0,0,.475.087,1.366,1.366,0,0,0,1.28-.893l1.7-4.587h8.238l1.7,4.587A1.368,1.368,0,0,0,53.1,35.7a1.35,1.35,0,0,0,.475-.087,1.365,1.365,0,0,0,.805-1.755L47.42,15.1a1.42,1.42,0,1,0-2.839,0L37.618,33.862a1.364,1.364,0,0,0,.806,1.755M42.9,27.492,46,19.124l3.1,8.368Z"/><path d="M34.378,45.612H7.794a6.426,6.426,0,0,0-6.419,6.419V78.615a6.426,6.426,0,0,0,6.419,6.42H34.378a6.427,6.427,0,0,0,6.42-6.42V52.031A6.427,6.427,0,0,0,34.378,45.612Zm3.688,33A3.692,3.692,0,0,1,34.378,82.3H7.794a3.691,3.691,0,0,1-3.687-3.688V52.031a3.691,3.691,0,0,1,3.687-3.687H34.378a3.691,3.691,0,0,1,3.688,3.687Z" fill="none" stroke="#000" stroke-linecap="round" stroke-linejoin="round" stroke-width="2.75"/><path d="M23.794,63.779a6.122,6.122,0,0,0-7.251-9.835,1.362,1.362,0,0,0-2.666.4V76.306a1.366,1.366,0,0,0,2.731,0V76.1a7.205,7.205,0,1,0,7.186-12.32ZM21.087,74.94a4.443,4.443,0,0,1-3.587-1.8,1.358,1.358,0,0,0-.892-.53v-15.9a1.354,1.354,0,0,0,1.119-.264,3.352,3.352,0,0,1,2.116-.74,3.394,3.394,0,1,1,0,6.788,1.366,1.366,0,0,0-.711,2.533l1.245.757a1.354,1.354,0,0,0,.71.2,4.478,4.478,0,1,1,0,8.956Z" fill="none" stroke="#000" stroke-linecap="round" stroke-linejoin="round" stroke-width="2.75"/><path d="M84.205,45.612H57.621A6.426,6.426,0,0,0,51.2,52.031V78.615a6.426,6.426,0,0,0,6.419,6.42H84.205a6.427,6.427,0,0,0,6.42-6.42V52.031A6.427,6.427,0,0,0,84.205,45.612Zm3.688,33A3.692,3.692,0,0,1,84.205,82.3H57.621a3.691,3.691,0,0,1-3.687-3.688V52.031a3.691,3.691,0,0,1,3.687-3.687H84.205a3.691,3.691,0,0,1,3.688,3.687Z" fill="none" stroke="#000" stroke-linecap="round" stroke-linejoin="round" stroke-width="2.75"/><path d="M77.993,71.063a1.366,1.366,0,0,0-1.886.418,5.271,5.271,0,0,1-4.258,2.772c-3.206,0-5.914-4.088-5.914-8.928s2.708-8.93,5.914-8.93a5,5,0,0,1,3.929,2.295,1.366,1.366,0,1,0,2.2-1.626,7.654,7.654,0,0,0-6.125-3.4c-4.768,0-8.646,5.231-8.646,11.662s3.878,11.661,8.646,11.661a7.923,7.923,0,0,0,6.562-4.037A1.366,1.366,0,0,0,77.993,71.063Z" fill="none" stroke="#000" stroke-linecap="round" stroke-linejoin="round" stroke-width="2.75"/><path d="M32.708,44.4H59.291a6.427,6.427,0,0,0,6.42-6.42V11.393a6.427,6.427,0,0,0-6.42-6.42H32.708a6.427,6.427,0,0,0-6.42,6.42V37.977A6.427,6.427,0,0,0,32.708,44.4Zm-3.688-33A3.692,3.692,0,0,1,32.708,7.7H59.291a3.692,3.692,0,0,1,3.688,3.688V37.977a3.691,3.691,0,0,1-3.688,3.687H32.708a3.691,3.691,0,0,1-3.688-3.687Z" fill="none" stroke="#000" stroke-linecap="round" stroke-linejoin="round" stroke-width="2.75"/><path d="M38.424,35.617a1.342,1.342,0,0,0,.475.087,1.366,1.366,0,0,0,1.28-.893l1.7-4.587h8.238l1.7,4.587A1.368,1.368,0,0,0,53.1,35.7a1.35,1.35,0,0,0,.475-.087,1.365,1.365,0,0,0,.805-1.755L47.42,15.1a1.42,1.42,0,1,0-2.839,0L37.618,33.862A1.364,1.364,0,0,0,38.424,35.617ZM42.9,27.492,46,19.124l3.1,8.368Z" fill="none" stroke="#000" stroke-linecap="round" stroke-linejoin="round" stroke-width="2.75"/></g></g></svg>