<svg xmlns="http://www.w3.org/2000/svg" width="54.811" height="63.512" viewBox="0 0 54.811 63.512"><g transform="translate(0)"><path d="M349.241,1454.216a20.438,20.438,0,1,0-20.438-20.438,20.455,20.455,0,0,0,20.438,20.438" transform="translate(-314.83 -1402.435)" fill="#e35cff" fill-rule="evenodd"/><path d="M337.929,1401.485a4.981,4.981,0,0,0,.908,3.123A4.57,4.57,0,0,0,342,1406.24a6.476,6.476,0,0,0,3.777-.58,4.413,4.413,0,0,0,2.088-2.612,7.635,7.635,0,0,0,.361-2.811,4.412,4.412,0,0,0-1.379-3.156,5.526,5.526,0,0,0-6.06-.773,5.682,5.682,0,0,0-2.858,5.178,1.718,1.718,0,0,0,1.7,1.7,1.737,1.737,0,0,0,1.7-1.7c0-.158.012-.315.026-.473.006-.06.018-.125.02-.185-.017.479-.038.275-.012.133.056-.31.194-.6.253-.907,0,.019-.19.4-.068.167.027-.051.051-.1.077-.156.068-.127.147-.245.224-.367.137-.218-.1.128-.112.141a1.625,1.625,0,0,0,.141-.161c.049-.052.1-.1.152-.152.139-.128.268-.13-.076.044.131-.066.248-.168.379-.239.053-.028.115-.051.165-.082-.325.2-.276.1-.144.061.158-.051.312-.1.473-.141.065-.015.13-.025.2-.039.338-.074-.38.018-.058.012.166,0,.331-.014.5,0a1.117,1.117,0,0,0,.2.016l-.256-.035q.1.015.2.035a3.736,3.736,0,0,1,.384.1c.051.017.345.146.074.019s.1.057.152.084c.1.056.224.187.333.213l-.188-.144c.051.042.1.086.149.132s.093.1.141.142c.207.2-.08-.074-.068-.108a2.38,2.38,0,0,0,.165.27c.093.15-.034.143-.047-.118a2.165,2.165,0,0,0,.089.305c.011.046.064.4.025.091s0,.053,0,.1c.008.146.009.291.006.437,0,.178-.016.356-.032.533a1.324,1.324,0,0,0-.02.2q.06-.428.02-.151c-.008.05-.016.1-.025.151-.028.149-.061.3-.1.446a3.076,3.076,0,0,0-.157.476c0-.035.183-.377.051-.136-.032.056-.06.115-.093.172a1.5,1.5,0,0,0-.16.243l.147-.193c-.043.049-.086.1-.133.142s-.1.083-.144.13c.258-.291.191-.142.037-.052l-.051.029q-.251.124.083-.022a.919.919,0,0,1-.224.08c-.2.066-.4.1-.607.155s-.068-.073.077,0a1.874,1.874,0,0,0-.38.029c-.234.011-.463-.01-.7-.018-.261-.009.418.085.013,0-.125-.026-.248-.049-.372-.082-.071-.019-.143-.039-.213-.061s-.141-.047-.21-.073c.219.1.269.116.154.06a2.244,2.244,0,0,1-.24-.137c0-.005.3.285.022,0-.045-.046-.084-.1-.13-.146.315.3.125.158.049.021-.023-.042-.176-.337-.04-.063s-.024-.107-.042-.173-.032-.13-.046-.2c-.011-.049-.02-.1-.027-.149q-.033-.2.027.2a3.682,3.682,0,0,0-.023-.6,1.7,1.7,0,1,0-3.408,0" transform="translate(-318.302 -1395.74)"/><path d="M343.319,1411.5q.087,4.344.174,8.688a1.7,1.7,0,1,0,3.408,0q-.087-4.344-.174-8.688a1.7,1.7,0,0,0-3.408,0" transform="translate(-320.352 -1401.086)"/><path d="M309.648,1443.03c1.581-3.154,4.33-5.75,6.927-8.081a20,20,0,0,1,8.864-4.647c6.545-1.536,13.327.272,18.826,3.962,2.913,1.954,5.962,4.571,7.192,7.96a1.748,1.748,0,0,0,2.1,1.19,1.717,1.717,0,0,0,1.19-2.1c-1.346-3.71-4.1-6.513-7.184-8.866a30.357,30.357,0,0,0-10.126-5.108,24.606,24.606,0,0,0-21.785,3.952,46.4,46.4,0,0,0-4.817,4.517,23.027,23.027,0,0,0-4.125,5.5,1.746,1.746,0,0,0,.612,2.331,1.719,1.719,0,0,0,2.331-.611" transform="translate(-306.345 -1407.391)"/><path d="M371.509,1439.782v23.544a1.7,1.7,0,0,0,3.408,0v-23.544a1.7,1.7,0,0,0-3.408,0" transform="translate(-331.076 -1411.868)"/><path d="M356.439,1430.5v17.627h3.2v-.35a1.6,1.6,0,0,0-3.2,0v.35a1.6,1.6,0,0,0,3.2,0V1430.5a1.6,1.6,0,0,0-3.2,0" transform="translate(-325.343 -1408.375)"/><path d="M333.156,1430.638V1460.1a1.7,1.7,0,0,0,3.408,0v-29.461a1.7,1.7,0,0,0-3.408,0" transform="translate(-316.486 -1408.39)"/><path d="M315.68,1439.949v11.709a1.7,1.7,0,0,0,3.408,0v-11.709a1.7,1.7,0,0,0-3.408,0" transform="translate(-309.838 -1411.91)"/><path d="M311.945,1458.042l-.761,1.62-.381.81c-.166.353-.555.742.112.3q.69-.31.151-.247h-.444l-.887,0-1.774,0a1.722,1.722,0,0,0-1.205,2.908l1.542,1.378.73.652.406.363c.046.041.092.082.138.124.084.086.079.066-.014-.061l-.1-.678c-.012.056-.024.112-.037.167a4.093,4.093,0,0,0-.122.517q-.109.465-.219.93l-.487,2.067a1.75,1.75,0,0,0,.783,1.924,1.775,1.775,0,0,0,2.064-.266l1.412-1.165.664-.548.332-.274.166-.137q.3-.24-.289.177h-.905l-.1-.064c.048.029.1.06.143.092.145.093.289.19.432.287.287.192.573.389.856.587q.85.595,1.676,1.224a1.711,1.711,0,0,0,2.563-1.471q-.1-1.069-.208-2.14c-.031-.32-.063-.642-.094-.962a2.753,2.753,0,0,0-.052-.535l-.012-.159q-.085.279.02-.006l-.438.752c.207-.267-.2.048.117-.1a2.93,2.93,0,0,0,.31-.179,10.052,10.052,0,0,0,1.007-.727,7.772,7.772,0,0,0,1.32-1.335,1.8,1.8,0,0,0,.438-1.658,1.681,1.681,0,0,0-1.19-1.19l-1.829-.33a10.347,10.347,0,0,0-1.793-.326c.092-.128.592.766.433.292a2.417,2.417,0,0,0-.2-.368c-.137-.246-.273-.491-.409-.737l-.921-1.655a1.7,1.7,0,1,0-2.942,1.719q.51.92,1.022,1.84a4.646,4.646,0,0,0,1.38,1.878,5.883,5.883,0,0,0,2.1.565l2.26.406q-.376-1.424-.752-2.847a7.978,7.978,0,0,1-.711.806c-.107.1-.217.205-.331.3-.05.043-.317.246-.147.122-.721.527-1.5.8-1.917,1.656a4.531,4.531,0,0,0-.1,2.452q.12,1.23.239,2.46l2.564-1.471q-.91-.69-1.846-1.343a5.322,5.322,0,0,0-2.2-1.157c-1.064-.142-1.808.659-2.559,1.279l-1.91,1.577,2.848,1.657q.28-1.189.56-2.377a5.532,5.532,0,0,0,.3-2.711,4.568,4.568,0,0,0-1.625-1.947l-1.947-1.74-1.2,2.909,2.217,0a4.809,4.809,0,0,0,2.416-.307,3.616,3.616,0,0,0,1.341-1.84l.952-2.025a1.751,1.751,0,0,0-.612-2.33,1.717,1.717,0,0,0-2.331.611" transform="translate(-306.251 -1419.069)"/><path d="M329.288,1476.663q-.381.811-.761,1.62-.191.405-.381.81c-.166.353-.555.742.112.3q.69-.31.151-.247h-.444l-.887,0-1.774,0a1.722,1.722,0,0,0-1.2,2.908l1.542,1.377.73.652.406.363.138.124q.126.13-.014-.061l-.1-.677c-.012.056-.024.111-.037.167a4.039,4.039,0,0,0-.122.517l-.219.93-.487,2.067a1.75,1.75,0,0,0,.783,1.924,1.775,1.775,0,0,0,2.064-.267l1.412-1.165.664-.548.332-.275.166-.136q.3-.241-.289.177h-.905l-.1-.064c.048.029.1.06.143.092.145.094.288.19.432.287q.431.289.856.587c.567.4,1.125.806,1.676,1.224a1.711,1.711,0,0,0,2.563-1.471q-.1-1.07-.208-2.14-.046-.48-.094-.962a2.8,2.8,0,0,0-.052-.535l-.012-.159q-.086.279.02-.005l-.438.752c.207-.267-.2.048.117-.1a3.094,3.094,0,0,0,.31-.18,10.037,10.037,0,0,0,1.007-.726,7.821,7.821,0,0,0,1.32-1.336,1.8,1.8,0,0,0,.438-1.658,1.681,1.681,0,0,0-1.19-1.19l-1.829-.329a10.305,10.305,0,0,0-1.793-.327c.092-.127.592.766.432.292a2.428,2.428,0,0,0-.2-.368q-.205-.369-.409-.736l-.921-1.656a1.7,1.7,0,1,0-2.942,1.719q.51.92,1.022,1.84a4.651,4.651,0,0,0,1.38,1.879,5.889,5.889,0,0,0,2.1.564l2.26.406q-.375-1.424-.752-2.847a7.775,7.775,0,0,1-.711.806c-.107.1-.217.2-.331.3-.05.043-.317.246-.147.123-.721.526-1.5.8-1.917,1.656a4.531,4.531,0,0,0-.1,2.452q.12,1.231.239,2.46l2.564-1.472q-.91-.688-1.846-1.343a5.317,5.317,0,0,0-2.2-1.157c-1.064-.142-1.808.659-2.559,1.279l-1.91,1.577,2.848,1.658q.28-1.189.56-2.377a5.533,5.533,0,0,0,.3-2.711,4.567,4.567,0,0,0-1.625-1.947l-1.947-1.74-1.205,2.908,2.218,0a4.808,4.808,0,0,0,2.415-.306,3.612,3.612,0,0,0,1.342-1.84l.952-2.026a1.752,1.752,0,0,0-.612-2.33,1.718,1.718,0,0,0-2.331.611" transform="translate(-312.849 -1426.153)"/><path d="M368.5,1476.663l-.761,1.62-.381.81c-.166.353-.555.742.112.3q.69-.31.151-.247h-.444l-.887,0-1.774,0a1.722,1.722,0,0,0-1.205,2.908l1.542,1.377.73.652.406.363.138.124c.084.087.079.066-.014-.061-.033-.226-.065-.452-.1-.677l-.037.167a4.034,4.034,0,0,0-.122.517q-.109.465-.219.93l-.487,2.067a1.751,1.751,0,0,0,.783,1.924,1.775,1.775,0,0,0,2.064-.267l1.412-1.165.665-.548.332-.275.166-.136q.3-.241-.289.177h-.906l-.1-.064c.049.029.1.06.143.092.145.094.289.19.432.287q.431.289.856.587c.566.4,1.124.806,1.675,1.224a1.711,1.711,0,0,0,2.564-1.471l-.208-2.14q-.047-.48-.094-.962a2.753,2.753,0,0,0-.052-.535l-.012-.159q-.085.279.02-.005l-.438.752c.207-.267-.2.048.117-.1a3.024,3.024,0,0,0,.31-.18,10.037,10.037,0,0,0,1.007-.726,7.8,7.8,0,0,0,1.32-1.336,1.8,1.8,0,0,0,.438-1.658,1.681,1.681,0,0,0-1.19-1.19l-1.829-.329a10.31,10.31,0,0,0-1.792-.327c.091-.127.592.766.432.292a2.48,2.48,0,0,0-.2-.368l-.409-.736-.921-1.656a1.7,1.7,0,1,0-2.942,1.719q.51.92,1.022,1.84a4.651,4.651,0,0,0,1.38,1.879,5.892,5.892,0,0,0,2.1.564l2.259.406-.752-2.847a7.857,7.857,0,0,1-.711.806c-.107.1-.217.2-.331.3-.05.043-.317.246-.148.123-.721.526-1.505.8-1.917,1.656a4.532,4.532,0,0,0-.1,2.452q.12,1.231.239,2.46l2.564-1.472q-.91-.688-1.846-1.343a5.324,5.324,0,0,0-2.2-1.157c-1.063-.142-1.808.659-2.559,1.279l-1.91,1.577,2.848,1.658q.281-1.189.56-2.377a5.533,5.533,0,0,0,.3-2.711,4.567,4.567,0,0,0-1.625-1.947l-1.947-1.74-1.2,2.908,2.217,0a4.811,4.811,0,0,0,2.416-.306,3.614,3.614,0,0,0,1.341-1.84q.477-1.012.952-2.026a1.751,1.751,0,0,0-.612-2.33,1.718,1.718,0,0,0-2.331.611" transform="translate(-327.767 -1426.153)"/><path d="M353.312,1462.641a4.05,4.05,0,0,1,2.573.968,1.823,1.823,0,0,1,.732,1.593,4.144,4.144,0,0,1-3.653,3.97c1.068-.092,2.353.665,3.534.592a5.285,5.285,0,0,0,3.312-1.392,4.014,4.014,0,0,0,.042-5.733c-1.931-2.2-4.438-1.864-6.538,0" transform="translate(-324.022 -1420.609)" fill="#fff"/><path d="M352.265,1463.314a1.8,1.8,0,0,0,.35.019c-.132.039-.341-.058-.049,0q.143.029.284.069a1.808,1.808,0,0,0,.333.108c-.1.024-.314-.148-.032-.008.087.043.173.089.257.138a2.015,2.015,0,0,0,.294.191c-.1,0-.263-.223-.025-.012.073.065.14.136.21.2q.147.172.012.009c-.085-.111-.086-.1-.006.021-.087-.188-.1-.209-.022,0,.069.182,0-.328-.007-.01,0,.11,0,.218,0,.328,0,.068-.021.375,0,.071s-.006,0-.023.068c-.022.1-.048.192-.077.287-.025.079-.056.156-.082.234-.066.2.172-.353.034-.087a5.288,5.288,0,0,1-.272.476,1.2,1.2,0,0,0-.143.205q.234-.3.111-.149c-.032.039-.065.076-.1.114a4.436,4.436,0,0,1-.355.352c-.038.033-.076.066-.115.1q-.149.123.148-.113c-.066.014-.151.1-.206.141-.147.1-.344.158-.479.265.094-.074.352-.136.085-.039-.078.028-.157.054-.236.077-.1.028-.193.048-.29.071-.317.075.406-.04.058,0a1.839,1.839,0,0,0-1.205.5,1.7,1.7,0,0,0,1.205,2.908,3.04,3.04,0,0,0,.515.013l-.24-.03c.073.012.145.027.217.042s.147.033.22.051c.416.1.823.235,1.24.331a6.6,6.6,0,0,0,7.275-3.324,5.816,5.816,0,0,0-.26-5.322,6.216,6.216,0,0,0-4.121-3.123,6.856,6.856,0,0,0-5.7,1.922,1.713,1.713,0,0,0,0,2.409,1.744,1.744,0,0,0,2.409,0c.059-.052.118-.1.178-.154.032-.026.335-.225.1-.083-.208.126,0,0,.056-.035.076-.053.153-.106.231-.156a9.29,9.29,0,0,1,.846-.456c-.437.222-.067.036.07-.007s.285-.083.431-.114a2.021,2.021,0,0,0,.24-.043c-.03.01-.441.033-.166.028.16,0,.318-.014.477-.005.063,0,.128.014.19.015-.428,0-.3-.048-.17-.02s.282.063.421.106c.063.02.123.044.185.064.206.066-.326-.158-.132-.056.152.081.3.155.45.248.023.015.22.151.221.149s-.326-.28-.084-.062c.114.1.23.2.339.312.124.125.235.258.352.388.149.166-.194-.276-.071-.093.058.088.12.172.177.261.083.131.16.266.23.4a1.637,1.637,0,0,0,.088.184c-.017-.026-.148-.392-.055-.127.1.281.131.584.226.861-.128-.373-.036-.292-.024-.115,0,.065.007.129.007.194a2.461,2.461,0,0,0-.017.434c-.007-.027.082-.44.022-.166-.014.064-.024.128-.039.191-.037.158-.108.31-.142.468.076-.345.12-.261.055-.133-.03.06-.059.12-.091.179-.074.137-.162.262-.245.392-.125.195.288-.313.038-.053-.05.053-.1.109-.147.162-.106.111-.352.251-.418.386.017-.035.323-.226.071-.058-.064.042-.126.087-.19.128a5.051,5.051,0,0,1-.447.255c-.068.034-.138.065-.206.1-.206.1.309-.109.09-.041-.183.058-.36.125-.545.172-.092.024-.185.047-.278.066l-.113.022q-.225.037,0,.005l.113-.014c-.076.009-.152.017-.228.023-.094.008-.187.013-.281.013-.029,0-.281-.013-.281-.012s.439.075.057.005c-.191-.035-.381-.081-.569-.131a8.259,8.259,0,0,0-2.574-.458v3.407a5.947,5.947,0,0,0,3.444-1.493,5.821,5.821,0,0,0,1.736-2.841,4.028,4.028,0,0,0-.967-4.061,5.881,5.881,0,0,0-3.865-1.544,1.719,1.719,0,0,0-1.7,1.7,1.738,1.738,0,0,0,1.7,1.7" transform="translate(-322.974 -1419.577)"/></g></svg>