<svg xmlns="http://www.w3.org/2000/svg" width="57.699" height="54.194" viewBox="0 0 57.699 54.194"><g transform="translate(-41.092 -37.414)"><g transform="translate(41.092 37.414)"><g transform="translate(1.778)"><path d="M558.256,1190.9a20.688,20.688,0,1,0-20.687-20.688,20.7,20.7,0,0,0,20.687,20.688" transform="translate(-537.569 -1149.52)" fill="#4d55ff" fill-rule="evenodd"/></g><g transform="translate(0.862 28.607)"><path d="M556.807,1195.133H540.135a4.03,4.03,0,0,0-4.026,4.026v16.672a4.03,4.03,0,0,0,4.026,4.026h16.672a4.031,4.031,0,0,0,4.026-4.026v-16.672a4.03,4.03,0,0,0-4.026-4.026m2.313,20.7a2.316,2.316,0,0,1-2.313,2.313H540.135a2.315,2.315,0,0,1-2.312-2.313v-16.672a2.315,2.315,0,0,1,2.312-2.312h16.672a2.315,2.315,0,0,1,2.313,2.312Z" transform="translate(-536.109 -1195.133)"/></g><g transform="translate(8.703 33.224)"><path d="M554.829,1209.272a3.84,3.84,0,0,0-4.548-6.169.854.854,0,0,0-1.672.249v13.776a.856.856,0,1,0,1.713,0V1217a4.519,4.519,0,1,0,4.507-7.726m-1.7,7a2.786,2.786,0,0,1-2.25-1.126.852.852,0,0,0-.559-.333v-9.973a.851.851,0,0,0,.7-.166,2.1,2.1,0,0,1,1.327-.464,2.129,2.129,0,1,1,0,4.257.856.856,0,0,0-.445,1.588l.78.475a.855.855,0,0,0,.445.125,2.808,2.808,0,1,1,0,5.616" transform="translate(-548.61 -1202.495)"/></g><g transform="translate(32.112 28.607)"><path d="M606.634,1195.133H589.962a4.03,4.03,0,0,0-4.026,4.026v16.672a4.03,4.03,0,0,0,4.026,4.026h16.673a4.031,4.031,0,0,0,4.026-4.026v-16.672a4.03,4.03,0,0,0-4.026-4.026m2.313,20.7a2.316,2.316,0,0,1-2.313,2.313H589.962a2.315,2.315,0,0,1-2.312-2.313v-16.672a2.315,2.315,0,0,1,2.312-2.312h16.673a2.315,2.315,0,0,1,2.313,2.312Z" transform="translate(-585.936 -1195.133)"/></g><g transform="translate(39.638 33.655)"><path d="M607.212,1214.1a.856.856,0,0,0-1.183.262,3.307,3.307,0,0,1-2.67,1.739c-2.011,0-3.71-2.565-3.71-5.6s1.7-5.6,3.71-5.6a3.14,3.14,0,0,1,2.464,1.439.857.857,0,1,0,1.377-1.019,4.8,4.8,0,0,0-3.841-2.133c-2.99,0-5.423,3.28-5.423,7.313s2.433,7.313,5.423,7.313a4.969,4.969,0,0,0,4.115-2.531.857.857,0,0,0-.262-1.183" transform="translate(-597.936 -1203.183)"/></g><g transform="translate(16.487 3.119)"><path d="M565.048,1179.218H581.72a4.031,4.031,0,0,0,4.026-4.027v-16.672a4.031,4.031,0,0,0-4.026-4.026H565.048a4.031,4.031,0,0,0-4.026,4.026v16.672a4.031,4.031,0,0,0,4.026,4.027m-2.313-20.7a2.315,2.315,0,0,1,2.313-2.313H581.72a2.315,2.315,0,0,1,2.313,2.313v16.672a2.315,2.315,0,0,1-2.313,2.313H565.048a2.315,2.315,0,0,1-2.313-2.313Z" transform="translate(-561.022 -1154.493)"/></g><g transform="translate(23.539 8.571)"><path d="M572.825,1176.953a.841.841,0,0,0,.3.054.857.857,0,0,0,.8-.559l1.068-2.877h5.167l1.067,2.877a.857.857,0,0,0,.8.559.838.838,0,0,0,.3-.054.856.856,0,0,0,.505-1.1l-4.367-11.769a.853.853,0,0,0-.554-.844.832.832,0,0,0-.337-.053.853.853,0,0,0-.889.9l-4.366,11.769a.857.857,0,0,0,.5,1.1m2.8-5.1,1.947-5.248,1.947,5.248Z" transform="translate(-572.266 -1163.186)"/></g><g transform="translate(0 27.744)"><path d="M556.295,1220.208H539.622a4.894,4.894,0,0,1-4.888-4.889v-16.672a4.893,4.893,0,0,1,4.888-4.888h16.672a4.894,4.894,0,0,1,4.889,4.888v16.672A4.895,4.895,0,0,1,556.295,1220.208ZM539.622,1197.2a1.452,1.452,0,0,0-1.45,1.45v16.672a1.452,1.452,0,0,0,1.45,1.451h16.672a1.452,1.452,0,0,0,1.451-1.451v-16.672a1.452,1.452,0,0,0-1.451-1.45Z" transform="translate(-534.734 -1193.758)"/></g><g transform="translate(7.84 32.362)"><path d="M552.619,1218.334a5.373,5.373,0,0,1-2.39-.567,1.719,1.719,0,0,1-2.994-1.152v-13.776a1.719,1.719,0,0,1,2.783-1.35,4.7,4.7,0,0,1,5.671,7.037,5.385,5.385,0,0,1-3.07,9.808Zm-3.662-3.909,0,1.921a.863.863,0,0,1,1.249-.625,3.708,3.708,0,0,1-.529-.572A.86.86,0,0,1,548.957,1214.425Zm1.716-.686a1.7,1.7,0,0,1,.388.378,1.946,1.946,0,1,0,1.558-3.112,1.712,1.712,0,0,1-.894-.251l-.78-.475a1.72,1.72,0,0,1-.272-.206Zm1.954-4.457a3.657,3.657,0,0,1,1.255.221.863.863,0,0,1-.212-1.314,2.975,2.975,0,0,1-1.831.627l.784.465Zm-1.954-4.219v2.487a1.723,1.723,0,0,1,1.166-.458,1.266,1.266,0,1,0,0-2.532,1.234,1.234,0,0,0-.788.275A1.707,1.707,0,0,1,550.673,1205.062Zm-1.728-2.22,0,3.135v-1.651a.862.862,0,0,1,1.03-.845c.043-.034.087-.067.13-.1a.862.862,0,0,1-1.165-.541Z" transform="translate(-547.235 -1201.12)"/></g><g transform="translate(31.25 27.744)"><path d="M606.122,1220.208H589.449a4.895,4.895,0,0,1-4.888-4.889v-16.672a4.894,4.894,0,0,1,4.888-4.888h16.672a4.894,4.894,0,0,1,4.889,4.888v16.672A4.895,4.895,0,0,1,606.122,1220.208ZM589.449,1197.2a1.452,1.452,0,0,0-1.45,1.45v16.672a1.452,1.452,0,0,0,1.45,1.451h16.672a1.452,1.452,0,0,0,1.451-1.451v-16.672a1.452,1.452,0,0,0-1.451-1.45Z" transform="translate(-584.561 -1193.758)"/></g><g transform="translate(38.776 32.793)"><path d="M602.846,1218.16c-3.466,0-6.286-3.668-6.286-8.175s2.82-8.176,6.286-8.176a5.639,5.639,0,0,1,4.534,2.482,1.719,1.719,0,0,1-2.763,2.045,2.315,2.315,0,0,0-1.77-1.09c-1.517,0-2.847,2.214-2.847,4.739s1.33,4.737,2.847,4.737a2.483,2.483,0,0,0,1.943-1.34,1.718,1.718,0,0,1,2.373-.526h0a1.723,1.723,0,0,1,.527,2.373A5.815,5.815,0,0,1,602.846,1218.16Z" transform="translate(-596.561 -1201.808)"/></g><g transform="translate(15.625 2.257)"><path d="M581.208,1179.567H564.536a4.894,4.894,0,0,1-4.889-4.889v-16.672a4.894,4.894,0,0,1,4.889-4.889h16.672a4.894,4.894,0,0,1,4.889,4.889v16.672A4.894,4.894,0,0,1,581.208,1179.567Zm-16.672-23.011a1.453,1.453,0,0,0-1.451,1.451v16.672a1.452,1.452,0,0,0,1.451,1.451h16.672a1.452,1.452,0,0,0,1.451-1.451v-16.672a1.452,1.452,0,0,0-1.451-1.451Z" transform="translate(-559.647 -1153.118)"/></g><g transform="translate(22.676 7.708)"><path d="M581.518,1177.357a1.725,1.725,0,0,1-1.612-1.123l-.859-2.314H575.08l-.859,2.314a1.726,1.726,0,0,1-1.612,1.122,1.719,1.719,0,0,1-1.611-2.319l4.315-11.631a1.71,1.71,0,0,1,1.113-1.489,1.858,1.858,0,0,1,.633-.107,1.771,1.771,0,0,1,.642.108,1.71,1.71,0,0,1,1.111,1.488l4.316,11.632a1.721,1.721,0,0,1-1.014,2.21A1.688,1.688,0,0,1,581.518,1177.357Zm-8.9-1.721v0h0Zm6.532-3.44h.5a.863.863,0,0,1,.78.492l-.581-1.56a.862.862,0,0,1-.7,1.068Zm-4.879-1.015-.537,1.449a.862.862,0,0,1,.748-.434h.5a.863.863,0,0,1-.71-1.015Zm2.086-.7h1.416l-.707-1.907Zm.708-5.249h0a.863.863,0,0,1,.753.443l-.672-1.806a.867.867,0,0,1-.053-.341c-.027,0-.046.005-.068.006a.821.821,0,0,1-.043.336l-.667,1.8A.862.862,0,0,1,577.064,1165.234Z" transform="translate(-570.89 -1161.811)"/></g></g></g></svg>