<svg xmlns="http://www.w3.org/2000/svg" width="52.437" height="52.261" viewBox="0 0 52.437 52.261"><g transform="translate(0 0)"><g transform="translate(0.926 12.043)"><path d="M321.063,1203.773a17.872,17.872,0,1,0-17.871-17.872,17.887,17.887,0,0,0,17.871,17.872" transform="translate(-303.192 -1168.029)" fill="#ffb41d" fill-rule="evenodd"/></g><g transform="translate(0 0.191)"><path d="M307.06,1165.163a5.487,5.487,0,0,1-4.754-2.44,7.36,7.36,0,0,1-.822-3.925c-.01-1.949-.025-4.894,1.872-7a9.308,9.308,0,0,1,2.436-1.808c5.394-3.038,10.2-4.253,14.68-3.71a1.738,1.738,0,1,1-.417,3.451c-3.72-.449-7.83.626-12.557,3.288a6.288,6.288,0,0,0-1.56,1.106c-.921,1.023-.988,2.786-.979,4.656a4.643,4.643,0,0,0,.314,2.133,2.273,2.273,0,0,0,2.12.756,10.237,10.237,0,0,0,3.409-1.309,1.738,1.738,0,1,1,1.608,3.082,13,13,0,0,1-4.654,1.685A6.77,6.77,0,0,1,307.06,1165.163Z" transform="translate(-301.483 -1146.154)"/></g><g transform="translate(10.566 0.814)"><path d="M322.728,1150.78h-.005a1.738,1.738,0,1,1,.005,0Z" transform="translate(-320.984 -1147.304)"/></g><g transform="translate(8.806)"><path d="M334.211,1198.063c-4,0-8.73-.9-11.993-4.4-3.141-3.361-3.819-8.045-4.059-11.751-.057-.823-.092-1.636-.121-2.389-.358-10.162-.4-20.438-.115-30.549a1.738,1.738,0,0,1,1.736-1.689h.05a1.739,1.739,0,0,1,1.689,1.786c-.281,10.038-.242,20.24.114,30.324.028.719.061,1.5.116,2.283.2,3.137.742,7.055,3.132,9.613,3.1,3.331,8.473,3.447,11.392,3.218,3.9-.3,6.795-1.381,8.591-3.2,2.11-2.142,2.846-5.474,3.216-7.794a89.685,89.685,0,0,0,.759-13.389l.134-20.369-3.814-.341a8.781,8.781,0,0,0-1.369-.052,2.885,2.885,0,0,0-.439.058,6.473,6.473,0,0,0-1.6.742c-.264.151-.53.3-.8.441a12.783,12.783,0,0,1-12.691-.629l-.264-.175a3.165,3.165,0,0,0-.966-.52,1.233,1.233,0,0,0-.377.1,1.738,1.738,0,0,1-1.144-3.282,4.637,4.637,0,0,1,1.568-.29,5.227,5.227,0,0,1,2.847,1.1l.234.155a9.385,9.385,0,0,0,9.192.455c.23-.119.455-.247.679-.375a9.221,9.221,0,0,1,2.568-1.114,6.168,6.168,0,0,1,.946-.132,11.755,11.755,0,0,1,1.914.056l3.969.355a3.327,3.327,0,0,1,2.044.759,3.427,3.427,0,0,1,.977,2.686l-.134,20.4a92.306,92.306,0,0,1-.8,13.913c-.445,2.792-1.362,6.834-4.173,9.688-2.4,2.436-6.035,3.858-10.8,4.228C335.722,1198.03,334.979,1198.063,334.211,1198.063Z" transform="translate(-317.736 -1145.802)"/></g><g transform="translate(14.38 0.089)"><path d="M340.252,1156.534a16.152,16.152,0,0,1-2.39-.184,13.924,13.924,0,0,1-5.927-2.218,9.306,9.306,0,0,1-3.866-5.495,1.738,1.738,0,0,1,3.388-.776,5.925,5.925,0,0,0,2.461,3.416,10.5,10.5,0,0,0,4.463,1.635,9.049,9.049,0,0,0,5.916-.85,4.435,4.435,0,0,0,2.23-4.109,1.738,1.738,0,1,1,3.44-.5,7.816,7.816,0,0,1-3.866,7.58A11.218,11.218,0,0,1,340.252,1156.534Z" transform="translate(-328.023 -1145.966)"/></g><g transform="translate(40.368 1.321)"><path d="M382.661,1166.489a7.85,7.85,0,0,1-6.293-3.212,1.738,1.738,0,1,1,2.825-2.024,4.373,4.373,0,0,0,3.465,1.76h.047l1.449-4.057a4.049,4.049,0,0,0,.385-2.033c-.2-.64-1.247-1.193-2.175-1.679l-.164-.086a28.877,28.877,0,0,1-5.621-3.874,1.738,1.738,0,0,1,2.3-2.608,25.458,25.458,0,0,0,4.944,3.407l.159.083c1.378.724,3.264,1.715,3.884,3.742a6.648,6.648,0,0,1-.437,4.219l-1.556,4.356a3.039,3.039,0,0,1-.71,1.2,2.974,2.974,0,0,1-1.87.78Q382.977,1166.489,382.661,1166.489Z" transform="translate(-375.991 -1148.24)"/></g><g transform="translate(26.54 35.511)"><path d="M353.855,1225.987l-1.7-.37-1.688-.412c.134-.547.257-1.053.4-1.553a20.926,20.926,0,0,1,4.565-8.208c2.617-2.893,5.669-4.337,8.6-4.065a1.738,1.738,0,0,1-.322,3.462c-2.535-.236-4.831,1.974-5.7,2.935a17.436,17.436,0,0,0-3.8,6.84C354.078,1225.07,353.967,1225.528,353.855,1225.987Z" transform="translate(-350.468 -1211.345)"/></g><g transform="translate(9.225 34.261)"><path d="M332.054,1226.443h-.043a1.738,1.738,0,0,1-1.7-1.78,21.5,21.5,0,0,0-.368-4.507,10.9,10.9,0,0,0-.891-2.861,7.437,7.437,0,0,0-1.763-2.277,10.732,10.732,0,0,0-7.047-2.506,1.738,1.738,0,0,1,0-3.476h0a14.249,14.249,0,0,1,9.344,3.378,10.907,10.907,0,0,1,2.575,3.335,14.294,14.294,0,0,1,1.193,3.759,25.012,25.012,0,0,1,.428,5.239A1.738,1.738,0,0,1,332.054,1226.443Z" transform="translate(-318.51 -1209.037)"/></g><g transform="translate(17.419 33.331)"><path d="M335.371,1214.667a1.738,1.738,0,0,1-1.312-2.878,13.016,13.016,0,0,1,4.485-3.708,11.508,11.508,0,0,1,4.855-.754,12.735,12.735,0,0,1,4.578.847,6.825,6.825,0,0,1,3.772,3.7,1.738,1.738,0,1,1-3.245,1.245,3.4,3.4,0,0,0-1.883-1.748,8.979,8.979,0,0,0-3.309-.573,8.287,8.287,0,0,0-3.384.468,10.036,10.036,0,0,0-3.243,2.8A1.734,1.734,0,0,1,335.371,1214.667Z" transform="translate(-333.634 -1207.321)"/></g></g></svg>