<svg xmlns="http://www.w3.org/2000/svg" width="53.068" height="57.12" viewBox="0 0 53.068 57.12"><g transform="translate(0 0)"><path d="M130.462,1464.834a19.81,19.81,0,1,0-19.809-19.809,19.826,19.826,0,0,0,19.809,19.809" transform="translate(-97.169 -1410.62)" fill="#0bddd7" fill-rule="evenodd"/><path d="M124.416,1414.1a41.6,41.6,0,0,1-1.7-6.191,30.083,30.083,0,0,1-.45-3.006,1.775,1.775,0,0,1,.024-.823c.053-.1.416-.2.647-.251a8.325,8.325,0,0,1,4.286.184,3.271,3.271,0,0,1,1.437.966,3.472,3.472,0,0,1,.646,2.068c.042,2.187-1.041,4.219-1.346,6.361a1.424,1.424,0,0,0,.961,1.693,1.387,1.387,0,0,0,1.693-.962c.342-2.4,1.492-4.633,1.444-7.093a5.836,5.836,0,0,0-3.249-5.34,10.58,10.58,0,0,0-6.011-.635,3.828,3.828,0,0,0-2.83,1.542c-.72,1.135-.443,2.515-.272,3.763a41.891,41.891,0,0,0,2.065,8.455,1.411,1.411,0,0,0,1.692.961,1.388,1.388,0,0,0,.961-1.693" transform="translate(-100.702 -1400.914)"/><path d="M130.393,1422.14a27.719,27.719,0,0,0-5.931-.966,15.262,15.262,0,0,0-5.238.435,5.933,5.933,0,0,0-3.759,3.013,6.2,6.2,0,0,0-.154,4.661c1.25,3.453,4.6,5.013,8.059,5.347,3.257.313,7.327-.16,9.2-3.2a6.771,6.771,0,0,0-1.671-8.824,1.384,1.384,0,0,0-1.883.494,1.41,1.41,0,0,0,.494,1.883,4.035,4.035,0,0,1,.914,4.641c-1.041,2.2-3.986,2.4-6.217,2.313-2.325-.091-4.972-.81-6.1-3.047a3.724,3.724,0,0,1-.284-2.8,3.07,3.07,0,0,1,2.126-1.822,13.1,13.1,0,0,1,4.507-.336,24.289,24.289,0,0,1,5.2.868,1.377,1.377,0,0,0,.731-2.654" transform="translate(-98.877 -1408.989)"/><path d="M132.276,1440.477a44.684,44.684,0,0,0-14.083-1.466,14.084,14.084,0,0,0-6.021,1.374,6.331,6.331,0,0,0-3.278,4.523,4.764,4.764,0,0,0,2.229,4.828c1.693,1.078,3.878,1.284,5.817,1.549a63.223,63.223,0,0,0,6.991.58c2.241.056,4.866.265,6.991-.57a6.51,6.51,0,0,0,2.955-9.425,1.412,1.412,0,0,0-1.883-.493,1.389,1.389,0,0,0-.494,1.883,3.763,3.763,0,0,1-1.47,5.448,6.957,6.957,0,0,1-2.362.383c-1.052.044-2.106.051-3.159.034q-2.891-.043-5.769-.365a26.709,26.709,0,0,1-5.124-.9c-1.123-.358-2.163-1.082-2.038-2.387.314-3.258,4.549-3.615,7.042-3.735a42.157,42.157,0,0,1,12.924,1.39,1.377,1.377,0,0,0,.731-2.654" transform="translate(-96.443 -1416.103)"/><path d="M109.855,1456.506c-2.644-.137-5.593.06-7.649,1.938a5.469,5.469,0,0,0-1.28,6.384c1.484,2.656,5.064,2.418,7.673,2.555q4.842.253,9.691.265,4.922.012,9.841-.222c2.684-.129,5.545-.445,7.249-2.786a6.061,6.061,0,0,0,.2-6.83,6.212,6.212,0,0,0-6.425-2.477c-.728.171-1.42.5-2.136.722a22.03,22.03,0,0,1-2.468.6,27.126,27.126,0,0,1-4.718.392c-3.334.023-6.656-.35-9.982-.537-1.77-.1-1.764,2.653,0,2.752,5.014.283,10.044.949,15.042.116a22.065,22.065,0,0,0,3.638-.922,4.8,4.8,0,0,1,2.609-.474,3.137,3.137,0,0,1,2.626,3.486c-.258,1.991-1.942,2.851-3.768,3.079a75.007,75.007,0,0,1-7.984.327,153.705,153.705,0,0,1-16.542-.433c-.849-.078-1.911-.267-2.244-1.163a2.7,2.7,0,0,1,.4-2.276c1.246-1.948,4.211-1.844,6.222-1.74,1.77.091,1.765-2.662,0-2.752" transform="translate(-93.064 -1422.59)"/><path d="M99.866,1471.2a21.766,21.766,0,0,0-6.013.486c-1.6.358-3.443.839-4.58,2.107-2.552,2.85-.077,6.709,2.438,8.529,2.615,1.89,5.945,2.472,9.07,2.889a104.679,104.679,0,0,0,11.96.864c4,.071,8.01-.049,12.008-.272,3.2-.178,6.792-.219,9.374-2.388a6.476,6.476,0,0,0-2.872-11.276c-1.775-.363-3.6.129-5.381.27-8.683.682-17.356-.631-26-1.208-1.768-.118-1.761,2.635,0,2.752,6.888.46,13.754,1.366,20.666,1.393,1.688.006,3.376-.04,5.06-.164q1.18-.088,2.355-.228a10.889,10.889,0,0,1,2.3-.2,3.763,3.763,0,0,1,3.169,5c-.838,2.485-3.884,2.961-6.144,3.142-3.466.278-6.957.4-10.434.44-3.513.043-7.028-.037-10.532-.3a49.269,49.269,0,0,1-9.269-1.3,11.63,11.63,0,0,1-3.976-1.809c-1.016-.764-2.138-2.009-2.084-3.372.057-1.451,1.93-1.793,3.051-2.077a19.137,19.137,0,0,1,5.834-.519c1.769.1,1.763-2.649,0-2.752" transform="translate(-88.199 -1428.976)"/></g></svg>