<svg xmlns="http://www.w3.org/2000/svg" width="60.325" height="49.779" viewBox="0 0 60.325 49.779"><g transform="translate(0 0)"><g transform="translate(20.327 5.266)"><path d="M-511.018,1333.374a20.034,20.034,0,0,0,19.981-20.017,20.034,20.034,0,0,0-19.981-20.018,20.041,20.041,0,0,0-20.017,20.018,20.041,20.041,0,0,0,20.017,20.017" transform="translate(531.035 -1293.339)" fill="#7744f2" fill-rule="evenodd"/></g><g transform="translate(37.134)"><path d="M-492.695,1302.7a1.946,1.946,0,0,1-1.922-1.657,1.946,1.946,0,0,1,1.635-2.214,6.233,6.233,0,0,0,3.991-2.472,3.576,3.576,0,0,0,.681-2.744,5.288,5.288,0,0,0-1.186-2.233,7.209,7.209,0,0,0-5.812-2.808,4.51,4.51,0,0,0-4.153,3.517,1.95,1.95,0,0,1-2.185,1.675,1.948,1.948,0,0,1-1.675-2.185,8.34,8.34,0,0,1,7.74-6.891,11.013,11.013,0,0,1,9.088,4.214,9.089,9.089,0,0,1,2,3.935,7.415,7.415,0,0,1-1.306,5.751,10.018,10.018,0,0,1-6.6,4.091A2,2,0,0,1-492.695,1302.7Z" transform="translate(503.34 -1284.661)"/></g><g transform="translate(41.146 5.562)"><path d="M-491.247,1302.974a1.389,1.389,0,0,1-1.17-.638,1.392,1.392,0,0,1,.416-1.922,2.391,2.391,0,0,0,1.305-2.126,1.994,1.994,0,0,0-1.027-1.592,1.6,1.6,0,0,0-1.429.214,1.6,1.6,0,0,0-.795,1.208,1.39,1.39,0,0,1-1.388,1.339h-.053a1.39,1.39,0,0,1-1.338-1.441,4.346,4.346,0,0,1,2.075-3.448,4.342,4.342,0,0,1,4-.439,4.729,4.729,0,0,1,2.727,3.914,5.068,5.068,0,0,1-2.57,4.71A1.384,1.384,0,0,1-491.247,1302.974Z" transform="translate(496.728 -1293.827)"/></g><g transform="translate(0 1.118)"><path d="M-556.195,1304.54a1.9,1.9,0,0,1-.293-.022,10.018,10.018,0,0,1-6.6-4.09,7.417,7.417,0,0,1-1.306-5.752,9.079,9.079,0,0,1,2-3.936,11,11,0,0,1,9.087-4.212,8.337,8.337,0,0,1,7.741,6.889,1.948,1.948,0,0,1-1.675,2.186,1.951,1.951,0,0,1-2.185-1.675,4.51,4.51,0,0,0-4.154-3.516,7.2,7.2,0,0,0-5.812,2.808,5.278,5.278,0,0,0-1.186,2.233,3.572,3.572,0,0,0,.681,2.743,6.226,6.226,0,0,0,3.989,2.473,1.947,1.947,0,0,1,1.635,2.214A1.948,1.948,0,0,1-556.195,1304.54Z" transform="translate(564.531 -1286.504)"/></g><g transform="translate(7.023 6.564)"><path d="M-549.62,1304.626a1.389,1.389,0,0,1-.752-.222,5.067,5.067,0,0,1-2.569-4.709,4.731,4.731,0,0,1,2.728-3.915,4.352,4.352,0,0,1,4,.439,4.349,4.349,0,0,1,2.075,3.448,1.392,1.392,0,0,1-1.338,1.441h-.053a1.391,1.391,0,0,1-1.388-1.339,1.6,1.6,0,0,0-.794-1.208,1.6,1.6,0,0,0-1.428-.215,2,2,0,0,0-1.029,1.594,2.394,2.394,0,0,0,1.306,2.126,1.392,1.392,0,0,1,.416,1.923A1.39,1.39,0,0,1-549.62,1304.626Z" transform="translate(552.959 -1295.479)"/></g><g transform="translate(6.463 3.737)"><path d="M-530.558,1336.861q-.732,0-1.484-.028c-5.412-.2-9.631-1.448-12.9-3.811a20.086,20.086,0,0,1-5.856-6.982,25.862,25.862,0,0,1-1.326-21.59,23.47,23.47,0,0,1,7.865-10.086,19.624,19.624,0,0,1,8.7-3.164,29.786,29.786,0,0,1,9.745.042,29.524,29.524,0,0,1,3.112.7,7.184,7.184,0,0,1,1.9.9c.13.079.265.163.409.246a27.812,27.812,0,0,1,4.841,3.344,22,22,0,0,1,6.019,8.559h0c.082.215.16.432.236.649a31.134,31.134,0,0,1,1.819,7.466c.737,8.267-2.856,16.191-9.154,20.187C-520.367,1335.664-525.046,1336.861-530.558,1336.861Zm-.258-42.148a25.885,25.885,0,0,0-4.12.331,15.905,15.905,0,0,0-7.013,2.455,19.85,19.85,0,0,0-6.565,8.411,21.927,21.927,0,0,0,1.153,18.3,16.25,16.25,0,0,0,4.7,5.656c2.625,1.9,6.146,2.9,10.764,3.076,5.352.2,9.791-.786,13.179-2.937,5.081-3.224,7.971-9.722,7.362-16.553a27.74,27.74,0,0,0-1.616-6.528c-.063-.18-.129-.362-.2-.544v0a18.149,18.149,0,0,0-4.98-7.047,23.8,23.8,0,0,0-4.179-2.867c-.18-.1-.346-.205-.508-.3a3.6,3.6,0,0,0-.93-.47,25.282,25.282,0,0,0-2.7-.609A25.917,25.917,0,0,0-530.816,1294.713Z" transform="translate(553.882 -1290.819)"/></g><g transform="translate(16.073 25.32)"><path d="M-515.743,1349.555a1.934,1.934,0,0,1-1.194-.41,1.946,1.946,0,0,1-.343-2.731,11.7,11.7,0,0,0,1.693-11.036,6.854,6.854,0,0,0-1.475-2.467,9.431,9.431,0,0,0-4.378-2.064,13.329,13.329,0,0,0-5.556-.436,9.109,9.109,0,0,0-6.9,6.905,11.834,11.834,0,0,0,1.887,9.075,1.947,1.947,0,0,1-.526,2.7,1.947,1.947,0,0,1-2.7-.526,15.576,15.576,0,0,1-2.452-12.13,13.1,13.1,0,0,1,10-9.859,17.449,17.449,0,0,1,7.185.489,12.921,12.921,0,0,1,6.2,3.1,10.7,10.7,0,0,1,2.364,3.854A15.677,15.677,0,0,1-514.2,1348.8,1.943,1.943,0,0,1-515.743,1349.555Z" transform="translate(538.046 -1326.386)"/></g><g transform="translate(23.474 35.202)"><path d="M-515.57,1352.2a4.7,4.7,0,0,1-3.85-2.465,4.671,4.671,0,0,1-5.49,2.092,1.391,1.391,0,0,1-.863-1.767,1.391,1.391,0,0,1,1.767-.863,1.914,1.914,0,0,0,2.2-.887,5.333,5.333,0,0,0,.382-1.553l.436-2.9a1.389,1.389,0,0,1,1.259-1.18,1.39,1.39,0,0,1,1.438.952,16.666,16.666,0,0,1,.5,2.119,11.117,11.117,0,0,0,.555,2.158c.351.844,1.188,1.65,1.859,1.492a1.389,1.389,0,0,1,1.664,1.047,1.391,1.391,0,0,1-1.048,1.665A3.633,3.633,0,0,1-515.57,1352.2Z" transform="translate(525.849 -1342.67)"/></g><g transform="translate(24.324 30.066)"><path d="M-517.021,1340.625h-.088l-3.208-.045a2.9,2.9,0,0,1-1.4-.3,2.844,2.844,0,0,1-.859-.766,19.664,19.664,0,0,1-1.508-2.156,1.87,1.87,0,0,1-.011-2.218,1.952,1.952,0,0,1,1.241-.7,17.131,17.131,0,0,1,4.023-.194,20.651,20.651,0,0,0,2.717-.024,1.376,1.376,0,0,1,1.129.425,1.389,1.389,0,0,1,.372,1.146l-.412,3.043a2.065,2.065,0,0,1-.652,1.336A1.982,1.982,0,0,1-517.021,1340.625Zm-3.287-2.827h.03l2.58.036.106-.78c-.465,0-.906-.018-1.341-.034-.714-.027-1.367-.05-2.052-.012q.279.391.577.76l.024.03C-520.359,1337.8-520.333,1337.8-520.308,1337.8Zm-.2-.01Z" transform="translate(524.448 -1334.207)"/></g><g transform="translate(33.958 22.827)"><path d="M-504.86,1329.285a3.844,3.844,0,0,1-1.554-.336,3.537,3.537,0,0,1-2.1-2.568h0a3.282,3.282,0,0,1,1.274-3.273,4.073,4.073,0,0,1,4.049-.5,3.062,3.062,0,0,1,1.769,2.758,3.932,3.932,0,0,1-1.641,3.417A3.367,3.367,0,0,1-504.86,1329.285Zm.118-4.231a1.36,1.36,0,0,0-.806.262.527.527,0,0,0-.229.577h0a.8.8,0,0,0,.492.515.837.837,0,0,0,.748.016,1.3,1.3,0,0,0,.336-.953c-.01-.27-.1-.312-.171-.346A.881.881,0,0,0-504.742,1325.054Z" transform="translate(508.573 -1322.278)"/></g><g transform="translate(17.968 23.061)"><path d="M-531.208,1329.671a3.834,3.834,0,0,1-1.555-.335,3.537,3.537,0,0,1-2.1-2.567h0a3.282,3.282,0,0,1,1.275-3.273,4.071,4.071,0,0,1,4.05-.5,3.062,3.062,0,0,1,1.768,2.757,3.939,3.939,0,0,1-1.638,3.417A3.375,3.375,0,0,1-531.208,1329.671Zm-.919-3.392a.8.8,0,0,0,.492.515.843.843,0,0,0,.748.016,1.309,1.309,0,0,0,.335-.954c-.01-.271-.1-.312-.171-.346a1.287,1.287,0,0,0-1.175.192.527.527,0,0,0-.229.577Z" transform="translate(534.923 -1322.664)"/></g></g></svg>