<svg xmlns="http://www.w3.org/2000/svg" width="54.682" height="62.465" viewBox="0 0 54.682 62.465"><g transform="translate(9.529 7.886)"><path d="M112.434,1207.215a20.959,20.959,0,1,0-20.958-20.959,20.976,20.976,0,0,0,20.958,20.959" transform="translate(-91.476 -1165.297)" fill="#06cc43" fill-rule="evenodd"/></g><g transform="translate(0.061 0.083)"><path d="M99.119,1201.608q-.984,0-1.971-.092c-11.75-1.1-21.521-12.583-20.5-24.1a26.235,26.235,0,0,1,3.485-10.6c4.409-7.782,11.645-12.938,19.355-13.793a2.038,2.038,0,0,1,2.24,2.325,89.189,89.189,0,0,0-.942,11.063,13.164,13.164,0,0,0,.535,4.9c1.208,3.143,4.889,4.742,8,4.934,3.736.231,7.526-1.022,11.186-2.232.056-.019.112-.034.169-.048q.123-.3.262-.592c1.481-3.13,4.934-5.875,8.652-5.066a2.038,2.038,0,1,1-.865,3.983c-1.57-.342-3.318,1.17-4.1,2.826a19.124,19.124,0,0,0-1.28,4.862c-.147.838-.3,1.705-.5,2.571C120.335,1193.425,109.945,1201.608,99.119,1201.608Zm-1.8-44.022c-5.38,1.482-10.445,5.6-13.641,11.245a22.2,22.2,0,0,0-2.971,8.947c-.833,9.4,7.183,18.781,16.819,19.68,9.4.872,19.163-6.369,21.343-15.819.176-.76.312-1.537.456-2.36.037-.209.073-.419.111-.629a28.845,28.845,0,0,1-10.366,1.669c-5.387-.332-9.923-3.291-11.555-7.54a16.768,16.768,0,0,1-.806-6.454C96.775,1163.417,96.979,1160.489,97.319,1157.586Z" transform="translate(-76.574 -1153.016)"/></g><g transform="translate(23.115)"><path d="M114.767,1156.381a3.288,3.288,0,0,1,2.7,1.08c.851,1.173.6,3.01-1.145,3.271-2.084.314-1.343,3.261.464,3.432l.151,2.769a1.762,1.762,0,0,0,0,3.369c3.007.919.628,4.289-1.578,2.6-1.785-1.366-3.527,1.667-1.764,3.017a5.334,5.334,0,0,0,7.814-1.522c1.63-3.076-.477-6.526-3.543-7.463v3.369c5.647-1.7,4.656-9.091-1.079-9.632q.232,1.715.464,3.431a5.318,5.318,0,0,0,4.3-6.357c-.66-3.181-3.791-4.739-6.784-4.859-2.249-.09-2.245,3.405,0,3.495" transform="translate(-112.859 -1152.885)"/></g><g transform="translate(8.163 45.47)"><path d="M102.244,1224.711l-12.082,7.234c-1.928,1.154-.173,4.176,1.764,3.017l12.082-7.234c1.927-1.153.172-4.176-1.764-3.017" transform="translate(-89.326 -1224.451)"/></g><g transform="translate(9.154 40.822)"><path d="M91.685,1220.446c5.609,3.7,11.05,8.555,17.673,10.312,2.176.578,3.1-2.792.929-3.369-6.279-1.666-11.517-6.448-16.838-9.961-1.883-1.242-3.634,1.783-1.764,3.017" transform="translate(-90.885 -1217.135)"/></g><g transform="translate(0 46.775)"><path d="M92.207,1230.682c-2.069-4.32-7.827-4.855-11.966-3.557-3.967,1.245-4.565,7.644-2.873,10.817,1.854,3.477,6.373,5.34,10.014,3.576a8.03,8.03,0,0,0,3.9-9.921c-.806-2.073-4.186-1.171-3.369.93,1.786,4.592-3.989,8.592-7.128,4.274-1.241-1.707-1.13-5.614.978-6.452,2.435-.97,6.246-.37,7.427,2.1.971,2.027,3.985.257,3.017-1.763" transform="translate(-76.478 -1226.504)"/></g><g transform="translate(22.541 46.759)"><path d="M122.789,1226.659c-4.4-.833-9.226,1.249-10.548,5.8-1.153,3.968,1.307,7.732,5.078,9.036a8.057,8.057,0,0,0,10.158-4.369c1.928-4.453.006-9.114-4.687-10.469-2.165-.625-3.089,2.746-.929,3.37,5.826,1.681,1.764,10.207-3.613,8.1-5.7-2.237-1.456-9.061,3.613-8.1,2.2.416,3.139-2.951.929-3.37" transform="translate(-111.955 -1226.479)"/></g></svg>